SplineFontDB: 3.2
FontName: wolf
FullName: wolf
FamilyName: wolf
Weight: Regular
Copyright: 
Version: 6
ItalicAngle: 0
UnderlinePosition: 0
UnderlineWidth: 0
Ascent: 800
Descent: 200
InvalidEm: 0
LayerCount: 2
Layer: 0 0 "Back" 1
Layer: 1 0 "Fore" 0
XUID: [1021 881 1847644375 23164]
OS2Version: 0
OS2_WeightWidthSlopeOnly: 0
OS2_UseTypoMetrics: 0
CreationTime: 1767649182
ModificationTime: 1767650770
PfmFamily: 17
TTFWeight: 400
TTFWidth: 5
LineGap: 90
VLineGap: 90
OS2TypoAscent: 0
OS2TypoAOffset: 1
OS2TypoDescent: 0
OS2TypoDOffset: 1
OS2TypoLinegap: 90
OS2WinAscent: 0
OS2WinAOffset: 1
OS2WinDescent: 0
OS2WinDOffset: 1
HheadAscent: 0
HheadAOffset: 1
HheadDescent: 0
HheadDOffset: 1
OS2Vendor: 'PfEd'
MarkAttachClasses: 1
DEI: 91125
Encoding: Original
UnicodeInterp: none
NameList: ΤεΧ Names
DisplaySize: -48
AntiAlias: 1
FitToEm: 0
WinInfo: 0 38 12
BeginPrivate: 0
EndPrivate
BeginChars: 92 92

StartChar: uni0000
Encoding: 0 0 0
Width: 1000
VWidth: 800
Flags: W
HStem: -200 1000<0 1000>
VStem: 0 1000<-200 800>
LayerCount: 2
Fore
SplineSet
0 -200 m 1
 0 800 l 1
 1000 800 l 1
 1000 -200 l 1
 0 -200 l 1
EndSplineSet
Validated: 1
EndChar

StartChar: numbersign
Encoding: 4 35 4
Width: 1000
VWidth: 800
Flags: W
HStem: 2 40<251.392 325.497 674.874 748.608> 214 40<329.444 403.358 596.642 670.556> 346 40<329.444 403.358 596.642 670.556> 558 40<251.392 325.497 674.874 748.608>
VStem: 202 40<50.7442 125.497 474.503 549.256> 414 40<129.444 203.358 396.642 470.556> 546 40<129.444 203.358 396.642 470.556> 758 40<51.392 125.497 474.503 549.256>
LayerCount: 2
Fore
SplineSet
227 573 m 0
 244 590 266 598 288 598 c 0
 310 598 332 590 348 573 c 2
 429 492 l 2
 446 476 454 454 454 432 c 0
 454 410 446 388 429 371 c 0
 412 354 390 346 368 346 c 0
 346 346 324 354 308 371 c 2
 227 452 l 2
 210 468 202 490 202 512 c 0
 202 534 210 556 227 573 c 0
651 573 m 2
 668 590 690 598 712 598 c 0
 734 598 756 590 773 573 c 0
 790 556 798 534 798 512 c 0
 798 490 790 468 773 452 c 2
 692 371 l 2
 676 354 654 346 632 346 c 0
 610 346 588 354 571 371 c 0
 554 388 546 410 546 432 c 0
 546 454 554 476 571 492 c 2
 651 573 l 2
320 544 m 2
 311 553 299 558 288 558 c 0
 276 558 264 553 256 544 c 0
 247 535 242 524 242 512 c 0
 242 500 247 489 256 480 c 2
 336 399 l 2
 345 390 357 386 368 386 c 0
 380 386 392 390 401 399 c 0
 410 408 414 420 414 432 c 0
 414 443 410 455 401 464 c 2
 320 544 l 2
744 544 m 0
 736 553 724 558 712 558 c 0
 701 558 689 553 680 544 c 2
 599 464 l 2
 590 455 586 443 586 432 c 0
 586 420 590 408 599 399 c 0
 608 390 620 386 632 386 c 0
 643 386 655 390 664 399 c 2
 744 480 l 2
 753 489 758 500 758 512 c 0
 758 524 753 535 744 544 c 0
308 229 m 2
 324 246 346 254 368 254 c 0
 390 254 412 246 429 229 c 0
 446 212 454 190 454 168 c 0
 454 146 446 124 429 108 c 2
 348 27 l 2
 332 10 310 2 288 2 c 0
 266 2 244 10 227 27 c 0
 210 44 202 66 202 88 c 0
 202 110 210 132 227 148 c 2
 308 229 l 2
571 229 m 0
 588 246 610 254 632 254 c 0
 654 254 676 246 692 229 c 2
 773 148 l 2
 790 132 798 110 798 88 c 0
 798 66 790 44 773 27 c 0
 756 10 734 2 712 2 c 0
 690 2 668 10 651 27 c 2
 571 108 l 2
 554 124 546 146 546 168 c 0
 546 190 554 212 571 229 c 0
401 201 m 0
 392 210 380 214 368 214 c 0
 357 214 345 210 336 201 c 2
 256 120 l 2
 247 111 242 100 242 88 c 0
 242 76 247 65 256 56 c 0
 264 47 276 42 288 42 c 0
 299 42 311 47 320 56 c 2
 401 136 l 2
 410 145 414 157 414 168 c 0
 414 180 410 192 401 201 c 0
664 201 m 2
 655 210 643 214 632 214 c 0
 620 214 608 210 599 201 c 0
 590 192 586 180 586 168 c 0
 586 157 590 145 599 136 c 2
 680 56 l 2
 689 47 700 42 712 42 c 0
 724 42 735 47 744 56 c 0
 753 65 758 76 758 88 c 0
 758 100 753 111 744 120 c 2
 664 201 l 2
EndSplineSet
Validated: 1
EndChar

StartChar: percent
Encoding: 6 37 6
Width: 1000
VWidth: 800
Flags: W
HStem: -71 442<749.875 850.125> -71 242<549.875 650.125> 429 242<349.875 450.125>
VStem: 129 142<249.875 529> 329 142<449.875 529> 529 142<71 150.125> 729 142<71 350.125>
LayerCount: 2
Fore
SplineSet
200 671 m 2x3e
 400 671 l 2
 439 671 471 639 471 600 c 2
 471 500 l 2
 471 461 439 429 400 429 c 0
 361 429 329 461 329 500 c 2
 329 529 l 1
 271 529 l 1
 271 300 l 2
 271 261 239 229 200 229 c 0
 161 229 129 261 129 300 c 2
 129 600 l 2
 129 639 161 671 200 671 c 2x3e
750 650 m 2
 764 664 782 671 800 671 c 0
 818 671 836 664 850 650 c 0
 864 636 871 618 871 600 c 0
 871 582 864 564 850 550 c 2
 250 -50 l 2
 236 -64 218 -71 200 -71 c 0x7e
 182 -71 164 -64 150 -50 c 0
 136 -36 129 -18 129 0 c 0
 129 18 136 36 150 50 c 2
 750 650 l 2
800 371 m 0xbe
 839 371 871 339 871 300 c 2
 871 0 l 2
 871 -39 839 -71 800 -71 c 2xbe
 600 -71 l 2
 561 -71 529 -39 529 0 c 2
 529 100 l 2
 529 139 561 171 600 171 c 0x7e
 639 171 671 139 671 100 c 2
 671 71 l 1
 729 71 l 1
 729 300 l 2
 729 339 761 371 800 371 c 0xbe
EndSplineSet
Validated: 1
EndChar

StartChar: ampersand
Encoding: 7 38 7
Width: 1000
VWidth: 800
Flags: W
HStem: -71 142<271 471> 129 142<271 529> 329 142<271 371 649.875 729> 529 142<271 429>
VStem: 129 142<71 129 471 529> 629 242<349.875 450.125>
LayerCount: 2
Fore
SplineSet
200 671 m 2
 600 671 l 2
 629 671 654 653 665 627 c 0
 669 618 670 609 670 600 c 0
 670 582 663 563 650 550 c 2
 450 350 l 2
 437 337 419 329 400 329 c 2
 200 329 l 2
 161 329 129 361 129 400 c 2
 129 600 l 2
 129 639 161 671 200 671 c 2
271 529 m 1
 271 471 l 1
 371 471 l 1
 429 529 l 1
 271 529 l 1
700 471 m 2
 800 471 l 2
 839 471 871 439 871 400 c 2
 871 300 l 2
 871 281 863 263 850 250 c 2
 750 150 l 1
 850 50 l 2
 864 36 871 18 871 0 c 0
 871 -18 864 -36 850 -50 c 0
 836 -64 818 -71 800 -71 c 0
 782 -71 764 -64 750 -50 c 2
 650 50 l 1
 550 -50 l 2
 537 -63 519 -71 500 -71 c 2
 200 -71 l 2
 161 -71 129 -39 129 -0 c 2
 129 200 l 2
 129 239 161 271 200 271 c 2
 671 271 l 1
 729 329 l 1
 700 329 l 2
 661 329 629 361 629 400 c 0
 629 439 661 471 700 471 c 2
271 129 m 1
 271 71 l 1
 471 71 l 1
 529 129 l 1
 271 129 l 1
EndSplineSet
Validated: 1
EndChar

StartChar: parenleft
Encoding: 9 40 9
Width: 1000
VWidth: 800
Flags: W
HStem: -71 21G<691 709> 651 20G<691 709>
LayerCount: 2
Fore
SplineSet
650 650 m 2
 664 664 682 671 700 671 c 0
 718 671 736 664 750 650 c 0
 764 636 771 618 771 600 c 0
 771 582 764 564 750 550 c 2
 550 350 l 2
 536 336 518 329 500 329 c 0
 482 329 464 336 450 350 c 0
 436 364 429 382 429 400 c 0
 429 418 436 436 450 450 c 2
 650 650 l 2
450 250 m 0
 464 264 482 271 500 271 c 0
 518 271 536 264 550 250 c 2
 750 50 l 2
 764 36 771 18 771 0 c 0
 771 -18 764 -36 750 -50 c 0
 736 -64 718 -71 700 -71 c 0
 682 -71 664 -64 650 -50 c 2
 450 150 l 2
 436 164 429 182 429 200 c 0
 429 218 436 236 450 250 c 0
EndSplineSet
Validated: 1
EndChar

StartChar: parenright
Encoding: 10 41 10
Width: 1000
VWidth: 800
Flags: W
HStem: -71 21G<291 309> 651 20G<291 309>
LayerCount: 2
Fore
SplineSet
250 650 m 0
 264 664 282 671 300 671 c 0
 318 671 336 664 350 650 c 2
 550 450 l 2
 564 436 571 418 571 400 c 0
 571 382 564 364 550 350 c 0
 536 336 518 329 500 329 c 0
 482 329 464 336 450 350 c 2
 250 550 l 2
 236 564 229 582 229 600 c 0
 229 618 236 636 250 650 c 0
450 250 m 2
 464 264 482 271 500 271 c 0
 518 271 536 264 550 250 c 0
 564 236 571 218 571 200 c 0
 571 182 564 164 550 150 c 2
 350 -50 l 2
 336 -64 318 -71 300 -71 c 0
 282 -71 264 -64 250 -50 c 0
 236 -36 229 -18 229 0 c 0
 229 18 236 36 250 50 c 2
 450 250 l 2
EndSplineSet
Validated: 1
EndChar

StartChar: asterisk
Encoding: 11 42 11
Width: 1000
VWidth: 800
Flags: W
LayerCount: 2
Fore
SplineSet
238 562 m 0
 251 575 268 583 288 583 c 0
 307 583 325 575 338 562 c 2
 417 483 l 1
 430 470 438 452 438 433 c 0
 438 413 430 395 417 383 c 0
 405 370 387 362 367 362 c 0
 348 362 330 370 317 383 c 2
 238 462 l 1
 225 475 217 493 217 512 c 0
 217 532 225 549 238 562 c 0
238 138 m 2
 317 217 l 1
 330 230 348 238 367 238 c 0
 387 238 405 230 417 217 c 0
 430 205 438 187 438 167 c 0
 438 148 430 130 417 117 c 2
 338 38 l 1
 325 25 307 17 288 17 c 0
 268 17 251 25 238 38 c 0
 225 51 217 68 217 88 c 0
 217 107 225 125 238 138 c 2
583 483 m 2
 662 562 l 1
 675 575 693 583 712 583 c 0
 732 583 749 575 762 562 c 0
 775 549 783 532 783 512 c 0
 783 493 775 475 762 462 c 2
 683 383 l 1
 670 370 652 362 633 362 c 0
 613 362 595 370 583 383 c 0
 570 395 562 413 562 433 c 0
 562 452 570 470 583 483 c 2
583 217 m 0
 595 230 613 238 633 238 c 0
 652 238 670 230 683 217 c 2
 762 138 l 1
 775 125 783 107 783 88 c 0
 783 68 775 51 762 38 c 0
 749 25 732 17 712 17 c 0
 693 17 675 25 662 38 c 2
 583 117 l 1
 570 130 562 148 562 167 c 0
 562 187 570 205 583 217 c 0
EndSplineSet
Validated: 1
EndChar

StartChar: plus
Encoding: 12 43 12
Width: 1000
VWidth: 800
Flags: W
HStem: -71 254<449.875 550.125> 229 142<149.875 362.125 637.875 850.125> 417 254<449.875 550.125>
VStem: 129 254<249.875 350.125> 429 142<-50.125 162.125 437.875 650.125> 617 254<249.875 350.125>
CounterMasks: 1 fc
LayerCount: 2
Fore
SplineSet
500 671 m 0
 539 671 571 639 571 600 c 2
 571 488 l 1
 571 449 539 417 500 417 c 0
 461 417 429 449 429 488 c 2
 429 600 l 1
 429 639 461 671 500 671 c 0
200 371 m 2
 312 371 l 1
 351 371 383 339 383 300 c 0
 383 261 351 229 312 229 c 2
 200 229 l 1
 161 229 129 261 129 300 c 0
 129 339 161 371 200 371 c 2
688 371 m 2
 800 371 l 1
 839 371 871 339 871 300 c 0
 871 261 839 229 800 229 c 2
 688 229 l 1
 649 229 617 261 617 300 c 0
 617 339 649 371 688 371 c 2
500 183 m 0
 539 183 571 151 571 112 c 2
 571 0 l 1
 571 -39 539 -71 500 -71 c 0
 461 -71 429 -39 429 0 c 2
 429 112 l 1
 429 151 461 183 500 183 c 0
EndSplineSet
Validated: 1
EndChar

StartChar: hyphen
Encoding: 14 45 14
Width: 1000
VWidth: 800
Flags: W
HStem: 229 142<249.875 750.125>
LayerCount: 2
Fore
SplineSet
300 371 m 2
 700 371 l 1
 739 371 771 339 771 300 c 0
 771 261 739 229 700 229 c 2
 300 229 l 1
 261 229 229 261 229 300 c 0
 229 339 261 371 300 371 c 2
EndSplineSet
Validated: 1
EndChar

StartChar: slash
Encoding: 16 47 16
Width: 1000
VWidth: 800
Flags: W
HStem: -71 21G<397 415.5> 651 20G<583.5 603.5>
LayerCount: 2
Fore
SplineSet
533 622 m 2
 541 647 567 671 600 671 c 0
 607 671 614 670 622 667 c 0
 652 657 670 629 670 599 c 0
 670 592 669 584 667 577 c 2
 597 366 l 2
 585 340 560 325 532 325 c 0
 525 325 517 326 510 328 c 0
 480 338 462 365 462 395 c 0
 462 402 463 410 465 417 c 2
 533 622 l 2
402 228 m 2
 410 253 436 276 468 276 c 0
 475 276 483 275 491 272 c 0
 521 263 540 235 540 206 c 0
 540 201 539 196 538 191 c 2
 467 -23 l 2
 457 -52 430 -71 401 -71 c 0
 393 -71 386 -70 378 -67 c 0
 357 -60 330 -34 330 0 c 0
 330 8 331 15 334 23 c 2
 402 228 l 2
EndSplineSet
Validated: 1
EndChar

StartChar: zero
Encoding: 17 48 17
Width: 1000
VWidth: 800
Flags: W
HStem: -71 142<371 700.125> 529 142<299.875 629>
VStem: 129 142<171 500.125> 729 142<99.875 429>
LayerCount: 2
Fore
SplineSet
350 671 m 2
 800 671 l 1
 839 671 871 639 871 600 c 2
 871 150 l 1
 871 111 839 79 800 79 c 0
 761 79 729 111 729 150 c 2
 729 429 l 1
 625 325 l 1
 612 312 594 304 575 304 c 0
 555 304 538 312 525 325 c 0
 512 338 504 356 504 375 c 0
 504 395 512 412 525 425 c 2
 629 529 l 1
 350 529 l 1
 311 529 279 561 279 600 c 0
 279 639 311 671 350 671 c 2
200 521 m 0
 239 521 271 489 271 450 c 2
 271 171 l 1
 375 275 l 2
 389 289 407 296 425 296 c 0
 443 296 461 289 475 275 c 0
 489 261 496 243 496 225 c 0
 496 207 489 189 475 175 c 2
 371 71 l 1
 650 71 l 2
 689 71 721 39 721 0 c 0
 721 -39 689 -71 650 -71 c 2
 200 -71 l 2
 161 -71 129 -39 129 0 c 2
 129 450 l 2
 129 489 161 521 200 521 c 0
EndSplineSet
Validated: 1
EndChar

StartChar: one
Encoding: 18 49 18
Width: 1000
VWidth: 800
Flags: W
HStem: -71 342<449.875 550.125> 329 342<449.875 550.125>
VStem: 429 142<-50.125 250.125 349.875 650.125>
LayerCount: 2
Fore
SplineSet
500 671 m 0
 539 671 571 639 571 600 c 2
 571 400 l 1
 571 361 539 329 500 329 c 0
 461 329 429 361 429 400 c 2
 429 600 l 1
 429 639 461 671 500 671 c 0
500 271 m 0
 539 271 571 239 571 200 c 2
 571 0 l 1
 571 -39 539 -71 500 -71 c 0
 461 -71 429 -39 429 0 c 2
 429 200 l 1
 429 239 461 271 500 271 c 0
EndSplineSet
Validated: 1
EndChar

StartChar: two
Encoding: 19 50 19
Width: 1000
VWidth: 800
Flags: W
HStem: -71 142<271 850.125> 229 142<271 450.125 549.875 729> 529 142<149.875 729>
VStem: 129 142<71 229> 529 342<249.875 350.125> 729 142<371 529>
CounterMasks: 1 e0
LayerCount: 2
Fore
SplineSet
200 671 m 2xf4
 800 671 l 1
 839 671 871 639 871 600 c 2xf4
 871 300 l 1
 871 261 839 229 800 229 c 2
 600 229 l 1
 561 229 529 261 529 300 c 0xf8
 529 339 561 371 600 371 c 2
 729 371 l 1
 729 529 l 1
 200 529 l 1
 161 529 129 561 129 600 c 0
 129 639 161 671 200 671 c 2xf4
200 371 m 2
 400 371 l 1
 439 371 471 339 471 300 c 0
 471 261 439 229 400 229 c 2
 271 229 l 1
 271 71 l 1
 800 71 l 1
 839 71 871 39 871 0 c 0
 871 -39 839 -71 800 -71 c 2
 200 -71 l 1
 161 -71 129 -39 129 0 c 2
 129 300 l 1
 129 339 161 371 200 371 c 2
EndSplineSet
Validated: 1
EndChar

StartChar: three
Encoding: 20 51 20
Width: 1000
VWidth: 800
Flags: W
HStem: -71 142<149.875 729> 129 142<149.875 729> 329 142<149.875 729> 529 142<149.875 729>
VStem: 729 142<71 129 471 529>
LayerCount: 2
Fore
SplineSet
200 671 m 2
 800 671 l 1
 839 671 871 639 871 600 c 2
 871 400 l 1
 871 361 839 329 800 329 c 2
 200 329 l 1
 161 329 129 361 129 400 c 0
 129 439 161 471 200 471 c 2
 729 471 l 1
 729 529 l 1
 200 529 l 1
 161 529 129 561 129 600 c 0
 129 639 161 671 200 671 c 2
200 271 m 2
 800 271 l 1
 839 271 871 239 871 200 c 2
 871 0 l 1
 871 -39 839 -71 800 -71 c 2
 200 -71 l 1
 161 -71 129 -39 129 0 c 0
 129 39 161 71 200 71 c 2
 729 71 l 1
 729 129 l 1
 200 129 l 1
 161 129 129 161 129 200 c 0
 129 239 161 271 200 271 c 2
EndSplineSet
Validated: 1
EndChar

StartChar: four
Encoding: 21 52 21
Width: 1000
VWidth: 800
Flags: W
HStem: -71 342<749.875 850.125> 329 142<271 729> 651 20G<180.5 219.5 780.5 819.5>
VStem: 129 142<471 650.125> 729 142<-50.125 250.125 471 650.125>
LayerCount: 2
Fore
SplineSet
200 671 m 0
 239 671 271 639 271 600 c 2
 271 471 l 1
 729 471 l 1
 729 600 l 1
 729 639 761 671 800 671 c 0
 839 671 871 639 871 600 c 2
 871 400 l 1
 871 361 839 329 800 329 c 2
 200 329 l 1
 161 329 129 361 129 400 c 2
 129 600 l 1
 129 639 161 671 200 671 c 0
800 271 m 0
 839 271 871 239 871 200 c 2
 871 0 l 1
 871 -39 839 -71 800 -71 c 0
 761 -71 729 -39 729 0 c 2
 729 200 l 1
 729 239 761 271 800 271 c 0
EndSplineSet
Validated: 1
EndChar

StartChar: five
Encoding: 22 53 22
Width: 1000
VWidth: 800
Flags: W
HStem: -71 142<149.875 729> 229 142<271 450.125 549.875 729> 529 142<271 850.125>
VStem: 129 342<249.875 350.125> 129 142<371 529> 729 142<71 229>
CounterMasks: 1 e0
LayerCount: 2
Fore
SplineSet
800 671 m 2xec
 839 671 871 639 871 600 c 0
 871 561 839 529 800 529 c 1
 271 529 l 1
 271 371 l 1xec
 400 371 l 2
 439 371 471 339 471 300 c 0
 471 261 439 229 400 229 c 1
 200 229 l 2
 161 229 129 261 129 300 c 1xf4
 129 600 l 2
 129 639 161 671 200 671 c 1
 800 671 l 2xec
800 371 m 2
 839 371 871 339 871 300 c 1
 871 0 l 2
 871 -39 839 -71 800 -71 c 1
 200 -71 l 2
 161 -71 129 -39 129 0 c 0
 129 39 161 71 200 71 c 1
 729 71 l 1
 729 229 l 1
 600 229 l 2
 561 229 529 261 529 300 c 0
 529 339 561 371 600 371 c 1
 800 371 l 2
EndSplineSet
Validated: 1
EndChar

StartChar: six
Encoding: 23 54 23
Width: 1000
VWidth: 800
Flags: W
HStem: -71 142<271 729> 129 142<271 729> 329 342<149.875 250.125>
VStem: 129 142<71 129 349.875 650.125>
LayerCount: 2
Fore
SplineSet
200 671 m 0
 239 671 271 639 271 600 c 2
 271 400 l 1
 271 361 239 329 200 329 c 0
 161 329 129 361 129 400 c 2
 129 600 l 1
 129 639 161 671 200 671 c 0
200 271 m 2
 800 271 l 1
 839 271 871 239 871 200 c 2
 871 0 l 1
 871 -39 839 -71 800 -71 c 2
 200 -71 l 1
 161 -71 129 -39 129 0 c 2
 129 200 l 1
 129 239 161 271 200 271 c 2
271 129 m 1
 271 71 l 1
 729 71 l 1
 729 129 l 1
 271 129 l 1
EndSplineSet
Validated: 1
EndChar

StartChar: seven
Encoding: 24 55 24
Width: 1000
VWidth: 800
Flags: W
HStem: -71 21G<780.5 819.5> 529 142<149.875 700.125>
VStem: 729 142<-50.125 500.125>
LayerCount: 2
Fore
SplineSet
200 671 m 2
 650 671 l 1
 689 671 721 639 721 600 c 0
 721 561 689 529 650 529 c 2
 200 529 l 1
 161 529 129 561 129 600 c 0
 129 639 161 671 200 671 c 2
800 521 m 0
 839 521 871 489 871 450 c 2
 871 0 l 1
 871 -39 839 -71 800 -71 c 0
 761 -71 729 -39 729 0 c 2
 729 450 l 1
 729 489 761 521 800 521 c 0
EndSplineSet
Validated: 1
EndChar

StartChar: eight
Encoding: 25 56 25
Width: 1000
VWidth: 800
Flags: W
HStem: -71 142<271 729> 129 142<271 729> 329 142<271 729> 529 142<271 729>
VStem: 129 142<71 129 471 529> 729 142<71 129 471 529>
LayerCount: 2
Fore
SplineSet
200 671 m 2
 800 671 l 1
 839 671 871 639 871 600 c 2
 871 400 l 1
 871 361 839 329 800 329 c 2
 200 329 l 1
 161 329 129 361 129 400 c 2
 129 600 l 1
 129 639 161 671 200 671 c 2
271 529 m 1
 271 471 l 1
 729 471 l 1
 729 529 l 1
 271 529 l 1
200 271 m 2
 800 271 l 1
 839 271 871 239 871 200 c 2
 871 0 l 1
 871 -39 839 -71 800 -71 c 2
 200 -71 l 1
 161 -71 129 -39 129 0 c 2
 129 200 l 1
 129 239 161 271 200 271 c 2
271 129 m 1
 271 71 l 1
 729 71 l 1
 729 129 l 1
 271 129 l 1
EndSplineSet
Validated: 1
EndChar

StartChar: nine
Encoding: 26 57 26
Width: 1000
VWidth: 800
Flags: W
HStem: -71 342<749.875 850.125> 329 142<271 729> 529 142<271 729>
VStem: 729 142<-50.125 250.125 471 529>
LayerCount: 2
Fore
SplineSet
200 671 m 2
 800 671 l 1
 839 671 871 639 871 600 c 2
 871 400 l 1
 871 361 839 329 800 329 c 2
 200 329 l 1
 161 329 129 361 129 400 c 2
 129 600 l 1
 129 639 161 671 200 671 c 2
271 529 m 1
 271 471 l 1
 729 471 l 1
 729 529 l 1
 271 529 l 1
800 271 m 0
 839 271 871 239 871 200 c 2
 871 0 l 1
 871 -39 839 -71 800 -71 c 0
 761 -71 729 -39 729 0 c 2
 729 200 l 1
 729 239 761 271 800 271 c 0
EndSplineSet
Validated: 1
EndChar

StartChar: less
Encoding: 29 60 29
Width: 1000
VWidth: 800
Flags: W
HStem: -86 40<463.842 536.608> 214 40<533.932 837.068> 246 40<263.392 336.158> 314 40<263.392 336.158> 346 40<533.932 837.068> 646 40<463.842 536.608>
VStem: 214 40<163.842 237.256 363.392 436.158> 485 40<262.766 337.492> 546 40<-36.608 36.1576 563.842 636.608> 846 40<262.766 337.234>
LayerCount: 2
Fore
SplineSet
439 661 m 2x97c0
 456 678 478 686 500 686 c 0
 522 686 544 678 561 661 c 0
 578 644 586 622 586 600 c 0
 586 578 578 556 561 539 c 2
 361 339 l 2
 344 322 322 314 300 314 c 0
 278 314 256 322 239 339 c 0
 222 356 214 378 214 400 c 0
 214 422 222 444 239 461 c 2
 439 661 l 2x97c0
532 632 m 0
 523 641 511 646 500 646 c 0
 488 646 476 641 468 632 c 2
 268 432 l 2
 259 423 254 412 254 400 c 0
 254 388 259 377 268 368 c 0
 277 359 288 354 300 354 c 0
 312 354 323 359 332 368 c 2
 532 568 l 2
 541 577 546 588 546 600 c 0
 546 612 541 623 532 632 c 0
571 386 m 2xcfc0
 800 386 l 2
 847 386 886 347 886 300 c 0
 886 253 847 214 800 214 c 2
 571 214 l 2
 524 214 485 253 485 300 c 0
 485 347 524 386 571 386 c 2xcfc0
571 346 m 2
 551 346 525 331 525 300 c 0
 525 275 545 254 571 254 c 2
 800 254 l 2
 825 254 846 275 846 300 c 0
 846 325 825 346 800 346 c 2
 571 346 l 2
239 261 m 0
 256 278 278 286 300 286 c 0xa7c0
 322 286 344 278 361 261 c 2
 561 61 l 2
 578 44 586 22 586 0 c 0
 586 -22 578 -44 561 -61 c 0
 544 -78 522 -86 500 -86 c 0
 478 -86 456 -78 439 -61 c 2
 239 139 l 2
 222 156 214 178 214 200 c 0
 214 222 222 244 239 261 c 0
332 232 m 2
 323 241 311 246 300 246 c 0
 288 246 276 241 268 232 c 0
 259 223 254 212 254 200 c 0
 254 188 259 177 268 168 c 2
 468 -32 l 2
 477 -41 488 -46 500 -46 c 0
 512 -46 523 -41 532 -32 c 0
 541 -23 546 -12 546 0 c 0
 546 12 541 23 532 32 c 2
 332 232 l 2
EndSplineSet
Validated: 1
EndChar

StartChar: equal
Encoding: 30 61 30
Width: 1000
VWidth: 800
Flags: W
HStem: 129 142<249.875 750.125> 329 142<249.875 750.125>
LayerCount: 2
Fore
SplineSet
300 471 m 2
 700 471 l 1
 739 471 771 439 771 400 c 0
 771 361 739 329 700 329 c 2
 300 329 l 1
 261 329 229 361 229 400 c 0
 229 439 261 471 300 471 c 2
300 271 m 2
 700 271 l 1
 739 271 771 239 771 200 c 0
 771 161 739 129 700 129 c 2
 300 129 l 1
 261 129 229 161 229 200 c 0
 229 239 261 271 300 271 c 2
EndSplineSet
Validated: 1
EndChar

StartChar: greater
Encoding: 31 62 31
Width: 1000
VWidth: 800
Flags: W
HStem: -86 40<563.392 636.158> 214 40<262.932 566.068> 246 40<763.842 836.608> 314 40<763.842 836.608> 346 40<262.932 566.068> 646 40<563.392 636.158>
VStem: 214 40<262.766 337.234> 514 40<-36.608 36.1576 563.842 636.608> 575 40<262.766 337.234> 846 40<163.842 237.256 363.392 436.158>
LayerCount: 2
Fore
SplineSet
539 661 m 0x97c0
 556 678 578 686 600 686 c 0
 622 686 644 678 661 661 c 2
 861 461 l 2
 878 444 886 422 886 400 c 0
 886 378 878 356 861 339 c 0
 844 322 822 314 800 314 c 0
 778 314 756 322 739 339 c 2
 539 539 l 2
 522 556 514 578 514 600 c 0
 514 622 522 644 539 661 c 0x97c0
632 632 m 2
 624 641 612 646 600 646 c 0
 589 646 577 641 568 632 c 0
 559 623 554 612 554 600 c 0
 554 588 559 577 568 568 c 2
 768 368 l 2
 777 359 788 354 800 354 c 0
 812 354 823 359 832 368 c 0
 841 377 846 388 846 400 c 0
 846 412 841 423 832 432 c 2
 632 632 l 2
300 386 m 2xcfc0
 529 386 l 2
 576 386 615 347 615 300 c 0
 615 253 576 214 529 214 c 2
 300 214 l 2
 253 214 214 253 214 300 c 0
 214 347 253 386 300 386 c 2xcfc0
300 346 m 2
 275 346 254 325 254 300 c 0
 254 275 275 254 300 254 c 2
 529 254 l 2
 555 254 575 275 575 300 c 0
 575 325 555 346 529 346 c 2
 300 346 l 2
739 261 m 2
 756 278 778 286 800 286 c 0xa7c0
 822 286 844 278 861 261 c 0
 878 244 886 222 886 200 c 0
 886 178 878 156 861 139 c 2
 661 -61 l 2
 644 -78 622 -86 600 -86 c 0
 578 -86 556 -78 539 -61 c 0
 522 -44 514 -22 514 0 c 0
 514 22 522 44 539 61 c 2
 739 261 l 2
832 232 m 0
 824 241 812 246 800 246 c 0
 789 246 777 241 768 232 c 2
 568 32 l 2
 559 23 554 12 554 0 c 0
 554 -12 559 -23 568 -32 c 0
 577 -41 588 -46 600 -46 c 0
 612 -46 623 -41 632 -32 c 2
 832 168 l 2
 841 177 846 188 846 200 c 0
 846 212 841 223 832 232 c 0
EndSplineSet
Validated: 1
EndChar

StartChar: at
Encoding: 33 64 33
Width: 1000
VWidth: 800
Flags: W
HStem: -86 40<462.766 537.234> 160 40<462.766 537.234> 214 40<162.932 351.068 648.932 837.068> 346 40<162.932 351.504 648.932 837.068> 400 40<462.766 537.234> 646 40<462.766 537.234>
VStem: 114 40<262.766 337.234> 360 40<262.766 337.234> 414 40<-37.0681 151.068 448.932 637.068> 546 40<-37.0681 151.504 448.932 637.068> 600 40<262.766 337.234> 846 40<262.766 337.234>
LayerCount: 2
Fore
SplineSet
500 686 m 0
 547 686 586 647 586 600 c 2
 586 486 l 2
 586 439 547 400 500 400 c 0
 453 400 414 439 414 486 c 2
 414 600 l 2
 414 647 453 686 500 686 c 0
800 386 m 2
 847 386 886 347 886 300 c 0
 886 253 847 214 800 214 c 2
 686 214 l 2
 639 214 600 253 600 300 c 0
 600 347 639 386 686 386 c 2
 800 386 l 2
546 600 m 2
 546 625 525 646 500 646 c 0
 475 646 454 625 454 600 c 2
 454 486 l 2
 454 460 475 440 500 440 c 0
 525 440 546 460 546 486 c 2
 546 600 l 2
846 300 m 0
 846 325 825 346 800 346 c 2
 686 346 l 2
 660 346 640 325 640 300 c 0
 640 275 660 254 686 254 c 2
 800 254 l 2
 825 254 846 275 846 300 c 0
314 386 m 2
 362 386 400 347 400 300 c 0
 400 253 361 214 314 214 c 2
 200 214 l 2
 153 214 114 253 114 300 c 0
 114 347 153 386 200 386 c 2
 314 386 l 2
500 200 m 0
 547 200 586 162 586 114 c 2
 586 0 l 2
 586 -47 547 -86 500 -86 c 0
 453 -86 414 -47 414 0 c 2
 414 114 l 2
 414 161 453 200 500 200 c 0
360 300 m 0
 360 325 340 346 314 346 c 2
 200 346 l 2
 175 346 154 325 154 300 c 0
 154 275 175 254 200 254 c 2
 314 254 l 2
 340 254 360 275 360 300 c 0
546 114 m 2
 546 140 525 160 500 160 c 0
 475 160 454 140 454 114 c 2
 454 0 l 2
 454 -25 475 -46 500 -46 c 0
 525 -46 546 -25 546 0 c 2
 546 114 l 2
EndSplineSet
Validated: 1
EndChar

StartChar: A
Encoding: 34 65 34
Width: 1000
VWidth: 800
Flags: W
HStem: -71 21G<180.5 219.5 780.5 819.5> 129 142<271 450.125 549.875 729> 651 20G<391 409 591 609>
VStem: 129 142<-50.125 129 271 371> 729 142<-50.125 129 271 371>
LayerCount: 2
Fore
SplineSet
350 650 m 2
 364 664 382 671 400 671 c 0
 418 671 436 664 450 650 c 0
 464 636 471 618 471 600 c 0
 471 582 464 564 450 550 c 2
 271 371 l 1
 271 271 l 1
 400 271 l 2
 439 271 471 239 471 200 c 0
 471 161 439 129 400 129 c 2
 271 129 l 1
 271 0 l 2
 271 -39 239 -71 200 -71 c 0
 161 -71 129 -39 129 0 c 2
 129 400 l 2
 129 419 137 437 150 450 c 2
 350 650 l 2
550 650 m 0
 564 664 582 671 600 671 c 0
 618 671 636 664 650 650 c 2
 850 450 l 2
 863 437 871 419 871 400 c 2
 871 0 l 2
 871 -39 839 -71 800 -71 c 0
 761 -71 729 -39 729 0 c 2
 729 129 l 1
 600 129 l 2
 561 129 529 161 529 200 c 0
 529 239 561 271 600 271 c 2
 729 271 l 1
 729 371 l 1
 550 550 l 2
 536 564 529 582 529 600 c 0
 529 618 536 636 550 650 c 0
EndSplineSet
Validated: 1
EndChar

StartChar: B
Encoding: 35 66 35
Width: 1000
VWidth: 800
Flags: W
HStem: -71 142<271 729> 129 142<349.875 729> 329 142<349.875 729> 529 142<271 729>
VStem: 129 142<71 250.125 349.875 529> 729 142<71 129 471 529>
LayerCount: 2
Fore
SplineSet
200 671 m 2
 800 671 l 1
 839 671 871 639 871 600 c 2
 871 400 l 1
 871 361 839 329 800 329 c 2
 400 329 l 1
 361 329 329 361 329 400 c 0
 329 439 361 471 400 471 c 2
 729 471 l 1
 729 529 l 1
 271 529 l 1
 271 400 l 1
 271 361 239 329 200 329 c 0
 161 329 129 361 129 400 c 2
 129 600 l 1
 129 639 161 671 200 671 c 2
200 271 m 0
 239 271 271 239 271 200 c 2
 271 71 l 1
 729 71 l 1
 729 129 l 1
 400 129 l 1
 361 129 329 161 329 200 c 0
 329 239 361 271 400 271 c 2
 800 271 l 1
 839 271 871 239 871 200 c 2
 871 0 l 1
 871 -39 839 -71 800 -71 c 2
 200 -71 l 1
 161 -71 129 -39 129 0 c 2
 129 200 l 1
 129 239 161 271 200 271 c 0
EndSplineSet
Validated: 1
EndChar

StartChar: C
Encoding: 36 67 36
Width: 1000
VWidth: 800
Flags: W
HStem: -71 142<429 850.125> 529 142<429 850.125>
LayerCount: 2
Fore
SplineSet
400 671 m 2
 800 671 l 2
 839 671 871 639 871 600 c 0
 871 561 839 529 800 529 c 2
 429 529 l 1
 250 350 l 2
 236 336 218 329 200 329 c 0
 182 329 164 336 150 350 c 0
 136 364 129 382 129 400 c 0
 129 418 136 436 150 450 c 2
 350 650 l 2
 363 663 381 671 400 671 c 2
150 250 m 0
 164 264 182 271 200 271 c 0
 218 271 236 264 250 250 c 2
 429 71 l 1
 800 71 l 2
 839 71 871 39 871 0 c 0
 871 -39 839 -71 800 -71 c 2
 400 -71 l 2
 381 -71 363 -63 350 -50 c 2
 150 150 l 2
 136 164 129 182 129 200 c 0
 129 218 136 236 150 250 c 0
EndSplineSet
Validated: 1
EndChar

StartChar: D
Encoding: 37 68 37
Width: 1000
VWidth: 800
Flags: W
HStem: -71 142<271 558> 529 142<271 558>
VStem: 129 142<71 250.125 349.875 529>
LayerCount: 2
Fore
SplineSet
200 671 m 2
 586 671 l 1
 605 671 622 663 635 652 c 2
 848 452 l 0
 862 439 871 420 871 400 c 0
 871 381 863 364 852 352 c 0
 839 338 820 329 800 329 c 0
 781 329 764 337 752 348 c 2
 558 529 l 1
 271 529 l 1
 271 400 l 1
 271 361 239 329 200 329 c 0
 161 329 129 361 129 400 c 2
 129 600 l 1
 129 639 161 671 200 671 c 2
200 271 m 0
 239 271 271 239 271 200 c 2
 271 71 l 1
 558 71 l 1
 752 252 l 1
 764 263 781 271 800 271 c 0
 820 271 839 262 852 248 c 0
 863 236 871 219 871 200 c 0
 871 180 862 161 848 148 c 2
 635 -52 l 1
 622 -63 605 -71 586 -71 c 2
 200 -71 l 1
 161 -71 129 -39 129 0 c 2
 129 200 l 1
 129 239 161 271 200 271 c 0
EndSplineSet
Validated: 1
EndChar

StartChar: E
Encoding: 38 69 38
Width: 1000
VWidth: 800
Flags: W
HStem: -71 142<271 850.125> 129 142<271 850.125> 329 142<271 850.125> 529 142<271 850.125>
VStem: 129 142<71 129 471 529>
LayerCount: 2
Fore
SplineSet
200 671 m 2
 800 671 l 1
 839 671 871 639 871 600 c 0
 871 561 839 529 800 529 c 2
 271 529 l 1
 271 471 l 1
 800 471 l 1
 839 471 871 439 871 400 c 0
 871 361 839 329 800 329 c 2
 200 329 l 1
 161 329 129 361 129 400 c 2
 129 600 l 1
 129 639 161 671 200 671 c 2
200 271 m 2
 800 271 l 1
 839 271 871 239 871 200 c 0
 871 161 839 129 800 129 c 2
 271 129 l 1
 271 71 l 1
 800 71 l 1
 839 71 871 39 871 0 c 0
 871 -39 839 -71 800 -71 c 2
 200 -71 l 1
 161 -71 129 -39 129 0 c 2
 129 200 l 1
 129 239 161 271 200 271 c 2
EndSplineSet
Validated: 1
EndChar

StartChar: F
Encoding: 39 70 39
Width: 1000
VWidth: 800
Flags: W
HStem: -71 342<149.875 250.125> 329 142<271 850.125> 529 142<271 850.125>
VStem: 129 142<-50.125 250.125 471 529>
LayerCount: 2
Fore
SplineSet
200 671 m 2
 800 671 l 1
 839 671 871 639 871 600 c 0
 871 561 839 529 800 529 c 2
 271 529 l 1
 271 471 l 1
 800 471 l 1
 839 471 871 439 871 400 c 0
 871 361 839 329 800 329 c 2
 200 329 l 1
 161 329 129 361 129 400 c 2
 129 600 l 1
 129 639 161 671 200 671 c 2
200 271 m 0
 239 271 271 239 271 200 c 2
 271 0 l 1
 271 -39 239 -71 200 -71 c 0
 161 -71 129 -39 129 0 c 2
 129 200 l 1
 129 239 161 271 200 271 c 0
EndSplineSet
Validated: 1
EndChar

StartChar: G
Encoding: 40 71 40
Width: 1000
VWidth: 800
Flags: W
HStem: -71 442<749.875 850.125> -71 142<299.875 729> 529 142<271 550.125>
VStem: 129 142<99.875 529> 729 142<71 350.125>
LayerCount: 2
Fore
SplineSet
200 671 m 2x38
 500 671 l 1
 539 671 571 639 571 600 c 0
 571 561 539 529 500 529 c 2
 271 529 l 1
 271 150 l 1
 271 111 239 79 200 79 c 0
 161 79 129 111 129 150 c 2
 129 600 l 1
 129 639 161 671 200 671 c 2x38
800 371 m 0xb8
 839 371 871 339 871 300 c 2
 871 0 l 1
 871 -39 839 -71 800 -71 c 2xb8
 350 -71 l 1
 311 -71 279 -39 279 0 c 0
 279 39 311 71 350 71 c 2
 729 71 l 1x78
 729 300 l 1
 729 339 761 371 800 371 c 0xb8
EndSplineSet
Validated: 1
EndChar

StartChar: H
Encoding: 41 72 41
Width: 1000
VWidth: 800
Flags: W
HStem: -71 21G<180.5 219.5 780.5 819.5> 229 142<271 450.125 549.875 729> 651 20G<180.5 219.5 780.5 819.5>
VStem: 129 142<-50.125 229 371 650.125> 729 142<-50.125 229 371 650.125>
LayerCount: 2
Fore
SplineSet
200 671 m 0
 239 671 271 639 271 600 c 2
 271 371 l 1
 400 371 l 2
 439 371 471 339 471 300 c 0
 471 261 439 229 400 229 c 2
 271 229 l 1
 271 0 l 2
 271 -39 239 -71 200 -71 c 0
 161 -71 129 -39 129 0 c 2
 129 600 l 2
 129 639 161 671 200 671 c 0
800 671 m 0
 839 671 871 639 871 600 c 2
 871 0 l 2
 871 -39 839 -71 800 -71 c 0
 761 -71 729 -39 729 0 c 2
 729 229 l 1
 600 229 l 2
 561 229 529 261 529 300 c 0
 529 339 561 371 600 371 c 2
 729 371 l 1
 729 600 l 2
 729 639 761 671 800 671 c 0
EndSplineSet
Validated: 1
EndChar

StartChar: I
Encoding: 42 73 42
Width: 1000
VWidth: 800
Flags: W
HStem: -71 142<149.875 429 571 850.125> 529 142<149.875 429 571 850.125>
VStem: 429 142<71 250.125 349.875 529>
LayerCount: 2
Fore
SplineSet
129 0 m 0
 129 39 161 71 200 71 c 2
 429 71 l 1
 429 200 l 2
 429 239 461 271 500 271 c 0
 539 271 571 239 571 200 c 2
 571 71 l 1
 800 71 l 2
 839 71 871 39 871 0 c 0
 871 -39 839 -71 800 -71 c 2
 200 -71 l 2
 161 -71 129 -39 129 0 c 0
129 600 m 0
 129 639 161 671 200 671 c 2
 800 671 l 2
 839 671 871 639 871 600 c 0
 871 561 839 529 800 529 c 2
 571 529 l 1
 571 400 l 2
 571 361 539 329 500 329 c 0
 461 329 429 361 429 400 c 2
 429 529 l 1
 200 529 l 2
 161 529 129 561 129 600 c 0
EndSplineSet
Validated: 1
EndChar

StartChar: J
Encoding: 43 74 43
Width: 1000
VWidth: 800
Flags: W
HStem: -71 142<271 700.125> 529 142<449.875 729>
VStem: 129 142<71 350.125> 729 142<99.875 529>
LayerCount: 2
Fore
SplineSet
500 671 m 2
 800 671 l 1
 839 671 871 639 871 600 c 2
 871 150 l 1
 871 111 839 79 800 79 c 0
 761 79 729 111 729 150 c 2
 729 529 l 1
 500 529 l 1
 461 529 429 561 429 600 c 0
 429 639 461 671 500 671 c 2
200 371 m 0
 239 371 271 339 271 300 c 2
 271 71 l 1
 650 71 l 1
 689 71 721 39 721 0 c 0
 721 -39 689 -71 650 -71 c 2
 200 -71 l 1
 161 -71 129 -39 129 0 c 2
 129 300 l 1
 129 339 161 371 200 371 c 0
EndSplineSet
Validated: 1
EndChar

StartChar: K
Encoding: 44 75 44
Width: 1000
VWidth: 800
Flags: W
HStem: 129 142<271 571> 329 142<271 571>
VStem: 129 142<-50.125 129 471 650.125>
LayerCount: 2
Fore
SplineSet
200 671 m 0
 239 671 271 639 271 600 c 2
 271 471 l 1
 571 471 l 1
 750 650 l 1
 763 663 780 671 800 671 c 0
 820 671 837 663 850 650 c 0
 863 637 871 620 871 600 c 0
 871 580 863 563 850 550 c 2
 650 350 l 1
 637 337 620 329 600 329 c 2
 200 329 l 1
 161 329 129 361 129 400 c 2
 129 600 l 1
 129 639 161 671 200 671 c 0
200 271 m 2
 600 271 l 1
 620 271 637 263 650 250 c 2
 850 50 l 1
 863 37 871 20 871 -0 c 0
 871 -20 863 -37 850 -50 c 0
 837 -63 820 -71 800 -71 c 0
 780 -71 763 -63 750 -50 c 2
 571 129 l 1
 271 129 l 1
 271 0 l 1
 271 -39 239 -71 200 -71 c 0
 161 -71 129 -39 129 0 c 2
 129 200 l 1
 129 239 161 271 200 271 c 2
EndSplineSet
Validated: 1
EndChar

StartChar: L
Encoding: 45 76 45
Width: 1000
VWidth: 800
Flags: W
HStem: -71 142<299.875 850.125> 651 20G<180.5 219.5>
VStem: 129 142<99.875 650.125>
LayerCount: 2
Fore
SplineSet
200 671 m 0
 239 671 271 639 271 600 c 2
 271 150 l 1
 271 111 239 79 200 79 c 0
 161 79 129 111 129 150 c 2
 129 600 l 1
 129 639 161 671 200 671 c 0
350 71 m 2
 800 71 l 1
 839 71 871 39 871 0 c 0
 871 -39 839 -71 800 -71 c 2
 350 -71 l 1
 311 -71 279 -39 279 0 c 0
 279 39 311 71 350 71 c 2
EndSplineSet
Validated: 1
EndChar

StartChar: M
Encoding: 46 77 46
Width: 1000
VWidth: 800
Flags: W
HStem: -71 21G<180.5 219.5 380.5 419.5 580.5 619.5 780.5 819.5> 529 142<271 329 671 729>
VStem: 129 142<-50.125 529> 329 142<-50.125 529> 529 142<-50.125 529> 729 142<-50.125 529>
LayerCount: 2
Fore
SplineSet
200 671 m 2
 400 671 l 1
 439 671 471 639 471 600 c 2
 471 0 l 1
 471 -39 439 -71 400 -71 c 0
 361 -71 329 -39 329 0 c 2
 329 529 l 1
 271 529 l 1
 271 0 l 1
 271 -39 239 -71 200 -71 c 0
 161 -71 129 -39 129 0 c 2
 129 600 l 1
 129 639 161 671 200 671 c 2
600 671 m 2
 800 671 l 1
 839 671 871 639 871 600 c 2
 871 0 l 1
 871 -39 839 -71 800 -71 c 0
 761 -71 729 -39 729 0 c 2
 729 529 l 1
 671 529 l 1
 671 0 l 1
 671 -39 639 -71 600 -71 c 0
 561 -71 529 -39 529 0 c 2
 529 600 l 1
 529 639 561 671 600 671 c 2
EndSplineSet
Validated: 1
EndChar

StartChar: N
Encoding: 47 78 47
Width: 1000
VWidth: 800
Flags: W
HStem: -71 342<449.875 550.125> -71 142<571 729> 329 342<449.875 550.125> 529 142<271 429>
VStem: 129 142<-50.125 529> 429 142<71 250.125 349.875 529> 729 142<71 650.125>
CounterMasks: 1 0e
LayerCount: 2
Fore
SplineSet
200 671 m 2x5e
 500 671 l 1
 539 671 571 639 571 600 c 2
 571 400 l 1
 571 361 539 329 500 329 c 0x2e
 461 329 429 361 429 400 c 2
 429 529 l 1
 271 529 l 1
 271 0 l 1
 271 -39 239 -71 200 -71 c 0
 161 -71 129 -39 129 0 c 2
 129 600 l 1
 129 639 161 671 200 671 c 2x5e
800 671 m 0x5e
 839 671 871 639 871 600 c 2
 871 0 l 1
 871 -39 839 -71 800 -71 c 2x5e
 500 -71 l 1
 461 -71 429 -39 429 0 c 2
 429 200 l 1
 429 239 461 271 500 271 c 0x8e
 539 271 571 239 571 200 c 2
 571 71 l 1
 729 71 l 1
 729 600 l 1
 729 639 761 671 800 671 c 0x5e
EndSplineSet
Validated: 1
EndChar

StartChar: O
Encoding: 48 79 48
Width: 1000
VWidth: 800
Flags: W
HStem: -71 142<271 729> 529 142<271 729>
VStem: 129 142<71 250.125 349.875 529> 729 142<71 250.125 349.875 529>
LayerCount: 2
Fore
SplineSet
200 671 m 2
 800 671 l 1
 839 671 871 639 871 600 c 2
 871 400 l 1
 871 361 839 329 800 329 c 0
 761 329 729 361 729 400 c 2
 729 529 l 1
 271 529 l 1
 271 400 l 1
 271 361 239 329 200 329 c 0
 161 329 129 361 129 400 c 2
 129 600 l 1
 129 639 161 671 200 671 c 2
200 271 m 0
 239 271 271 239 271 200 c 2
 271 71 l 1
 729 71 l 1
 729 200 l 1
 729 239 761 271 800 271 c 0
 839 271 871 239 871 200 c 2
 871 0 l 1
 871 -39 839 -71 800 -71 c 2
 200 -71 l 1
 161 -71 129 -39 129 0 c 2
 129 200 l 1
 129 239 161 271 200 271 c 0
EndSplineSet
Validated: 1
EndChar

StartChar: P
Encoding: 49 80 49
Width: 1000
VWidth: 800
Flags: W
HStem: -71 342<149.875 250.125> 329 142<271 729> 529 142<271 729>
VStem: 129 142<-50.125 250.125 471 529>
LayerCount: 2
Fore
SplineSet
200 671 m 2
 800 671 l 1
 839 671 871 639 871 600 c 2
 871 400 l 1
 871 361 839 329 800 329 c 2
 200 329 l 1
 161 329 129 361 129 400 c 2
 129 600 l 1
 129 639 161 671 200 671 c 2
271 529 m 1
 271 471 l 1
 729 471 l 1
 729 529 l 1
 271 529 l 1
200 271 m 0
 239 271 271 239 271 200 c 2
 271 0 l 1
 271 -39 239 -71 200 -71 c 0
 161 -71 129 -39 129 0 c 2
 129 200 l 1
 129 239 161 271 200 271 c 0
EndSplineSet
Validated: 1
EndChar

StartChar: Q
Encoding: 50 81 50
Width: 1000
VWidth: 800
Flags: W
HStem: -71 142<271 550.125> 229 442<749.875 850.125> 529 142<299.875 729>
VStem: 129 442<-50.125 50.125> 129 142<71 500.125> 729 142<249.875 529>
LayerCount: 2
Fore
SplineSet
350 671 m 2xa4
 800 671 l 2
 839 671 871 639 871 600 c 2
 871 300 l 2
 871 261 839 229 800 229 c 0xc4
 761 229 729 261 729 300 c 2
 729 529 l 1
 350 529 l 2
 311 529 279 561 279 600 c 0
 279 639 311 671 350 671 c 2xa4
200 521 m 0
 239 521 271 489 271 450 c 2
 271 71 l 1x8c
 500 71 l 2
 539 71 571 39 571 0 c 0
 571 -39 539 -71 500 -71 c 2
 200 -71 l 2
 161 -71 129 -39 129 0 c 2x94
 129 450 l 2x8c
 129 489 161 521 200 521 c 0
550 250 m 0
 564 264 582 271 600 271 c 0
 618 271 636 264 650 250 c 2
 850 50 l 2
 864 36 871 18 871 0 c 0
 871 -18 864 -36 850 -50 c 0
 836 -64 818 -71 800 -71 c 0
 782 -71 764 -64 750 -50 c 2
 550 150 l 2
 536 164 529 182 529 200 c 0
 529 218 536 236 550 250 c 0
EndSplineSet
Validated: 1
EndChar

StartChar: R
Encoding: 51 82 51
Width: 1000
VWidth: 800
Flags: W
HStem: -71 342<149.875 250.125> 329 142<271 729> 529 142<271 729>
VStem: 129 142<-50.125 250.125 471 529>
LayerCount: 2
Fore
SplineSet
200 671 m 2
 800 671 l 2
 839 671 871 639 871 600 c 2
 871 400 l 2
 871 361 839 329 800 329 c 2
 200 329 l 2
 161 329 129 361 129 400 c 2
 129 600 l 2
 129 639 161 671 200 671 c 2
271 529 m 1
 271 471 l 1
 729 471 l 1
 729 529 l 1
 271 529 l 1
200 271 m 0
 239 271 271 239 271 200 c 2
 271 0 l 2
 271 -39 239 -71 200 -71 c 0
 161 -71 129 -39 129 0 c 2
 129 200 l 2
 129 239 161 271 200 271 c 0
550 250 m 0
 564 264 582 271 600 271 c 0
 618 271 636 264 650 250 c 2
 850 50 l 2
 864 36 871 18 871 0 c 0
 871 -18 864 -36 850 -50 c 0
 836 -64 818 -71 800 -71 c 0
 782 -71 764 -64 750 -50 c 2
 550 150 l 2
 536 164 529 182 529 200 c 0
 529 218 536 236 550 250 c 0
EndSplineSet
Validated: 1
EndChar

StartChar: S
Encoding: 52 83 52
Width: 1000
VWidth: 800
Flags: W
HStem: -71 142<149.875 729> 529 142<271 850.125>
VStem: 129 142<451 529> 729 142<71 149>
LayerCount: 2
Fore
SplineSet
200 671 m 2
 800 671 l 2
 839 671 871 639 871 600 c 0
 871 561 839 529 800 529 c 2
 271 529 l 1
 271 451 l 1
 427 399 l 2
 457 389 476 361 476 332 c 0
 476 324 475 317 472 309 c 0
 462 280 435 261 406 261 c 0
 398 261 391 262 383 265 c 2
 178 333 l 2
 149 343 129 370 129 400 c 2
 129 600 l 2
 129 639 161 671 200 671 c 2
528 291 m 0
 538 322 566 339 595 339 c 0
 602 339 610 338 617 335 c 2
 822 267 l 2
 851 257 871 230 871 200 c 2
 871 0 l 2
 871 -39 839 -71 800 -71 c 2
 200 -71 l 2
 161 -71 129 -39 129 0 c 0
 129 39 161 71 200 71 c 2
 729 71 l 1
 729 149 l 1
 573 201 l 2
 543 211 524 239 524 268 c 0
 524 276 525 283 528 291 c 0
EndSplineSet
Validated: 1
EndChar

StartChar: T
Encoding: 53 84 53
Width: 1000
VWidth: 800
Flags: W
HStem: -71 21G<380.5 419.5 580.5 619.5> 529 142<149.875 329 671 850.125>
VStem: 329 142<-50.125 529> 529 142<-50.125 529>
LayerCount: 2
Fore
SplineSet
200 671 m 2
 400 671 l 1
 439 671 471 639 471 600 c 2
 471 0 l 1
 471 -39 439 -71 400 -71 c 0
 361 -71 329 -39 329 0 c 2
 329 529 l 1
 200 529 l 1
 161 529 129 561 129 600 c 0
 129 639 161 671 200 671 c 2
600 671 m 2
 800 671 l 1
 839 671 871 639 871 600 c 0
 871 561 839 529 800 529 c 2
 671 529 l 1
 671 0 l 1
 671 -39 639 -71 600 -71 c 0
 561 -71 529 -39 529 0 c 2
 529 600 l 1
 529 639 561 671 600 671 c 2
EndSplineSet
Validated: 1
EndChar

StartChar: U
Encoding: 54 85 54
Width: 1000
VWidth: 800
Flags: W
HStem: -71 142<271 450.125 549.875 729> 651 20G<180.5 219.5 780.5 819.5>
VStem: 129 342<-50.125 50.125> 129 142<71 650.125> 529 342<-50.125 50.125> 729 142<71 650.125>
LayerCount: 2
Fore
SplineSet
200 671 m 0xd0
 239 671 271 639 271 600 c 2
 271 71 l 1xd0
 400 71 l 1
 439 71 471 39 471 0 c 0
 471 -39 439 -71 400 -71 c 2
 200 -71 l 1
 161 -71 129 -39 129 0 c 2xe0
 129 600 l 1
 129 639 161 671 200 671 c 0xd0
800 671 m 0
 839 671 871 639 871 600 c 2xc4
 871 0 l 1
 871 -39 839 -71 800 -71 c 2
 600 -71 l 1
 561 -71 529 -39 529 0 c 0xc8
 529 39 561 71 600 71 c 2
 729 71 l 1
 729 600 l 1xc4
 729 639 761 671 800 671 c 0
EndSplineSet
Validated: 1
EndChar

StartChar: V
Encoding: 55 86 55
Width: 1000
VWidth: 800
Flags: W
HStem: -71 21G<390 410 590 610> 651 20G<180.5 219.5 780.5 819.5>
VStem: 129 142<229 650.125> 729 142<229 650.125>
LayerCount: 2
Fore
SplineSet
200 671 m 0
 239 671 271 639 271 600 c 2
 271 229 l 1
 450 50 l 1
 463 37 471 20 471 -0 c 0
 471 -20 463 -37 450 -50 c 0
 437 -63 420 -71 400 -71 c 0
 380 -71 363 -63 350 -50 c 2
 150 150 l 1
 137 163 129 180 129 200 c 2
 129 600 l 1
 129 639 161 671 200 671 c 0
800 671 m 0
 839 671 871 639 871 600 c 2
 871 200 l 1
 871 180 863 163 850 150 c 2
 650 -50 l 1
 637 -63 620 -71 600 -71 c 0
 580 -71 563 -63 550 -50 c 0
 537 -37 529 -20 529 0 c 0
 529 20 537 37 550 50 c 2
 729 229 l 1
 729 600 l 1
 729 639 761 671 800 671 c 0
EndSplineSet
Validated: 1
EndChar

StartChar: W
Encoding: 56 87 56
Width: 1000
VWidth: 800
Flags: W
HStem: -71 142<271 329 671 729> 651 20G<180.5 219.5 380.5 419.5 580.5 619.5 780.5 819.5>
VStem: 129 142<71 650.125> 329 142<71 650.125> 529 142<71 650.125> 729 142<71 650.125>
LayerCount: 2
Fore
SplineSet
800 -71 m 2
 600 -71 l 1
 561 -71 529 -39 529 0 c 2
 529 600 l 1
 529 639 561 671 600 671 c 0
 639 671 671 639 671 600 c 2
 671 71 l 1
 729 71 l 1
 729 600 l 1
 729 639 761 671 800 671 c 0
 839 671 871 639 871 600 c 2
 871 0 l 1
 871 -39 839 -71 800 -71 c 2
400 -71 m 2
 200 -71 l 1
 161 -71 129 -39 129 0 c 2
 129 600 l 1
 129 639 161 671 200 671 c 0
 239 671 271 639 271 600 c 2
 271 71 l 1
 329 71 l 1
 329 600 l 1
 329 639 361 671 400 671 c 0
 439 671 471 639 471 600 c 2
 471 0 l 1
 471 -39 439 -71 400 -71 c 2
EndSplineSet
Validated: 1
EndChar

StartChar: X
Encoding: 57 88 57
Width: 1000
VWidth: 800
Flags: W
HStem: -71 21G<191 209 791 809> 651 20G<191 209 791 809>
VStem: 329 142<229 371> 529 142<229 371>
LayerCount: 2
Fore
SplineSet
150 650 m 0
 164 664 182 671 200 671 c 0
 218 671 236 664 250 650 c 2
 450 450 l 2
 463 437 471 419 471 400 c 2
 471 200 l 2
 471 181 463 163 450 150 c 2
 250 -50 l 2
 236 -64 218 -71 200 -71 c 0
 182 -71 164 -64 150 -50 c 0
 136 -36 129 -18 129 0 c 0
 129 18 136 36 150 50 c 2
 329 229 l 1
 329 371 l 1
 150 550 l 2
 136 564 129 582 129 600 c 0
 129 618 136 636 150 650 c 0
750 650 m 2
 764 664 782 671 800 671 c 0
 818 671 836 664 850 650 c 0
 864 636 871 618 871 600 c 0
 871 582 864 564 850 550 c 2
 671 371 l 1
 671 229 l 1
 850 50 l 2
 864 36 871 18 871 0 c 0
 871 -18 864 -36 850 -50 c 0
 836 -64 818 -71 800 -71 c 0
 782 -71 764 -64 750 -50 c 2
 550 150 l 2
 537 163 529 181 529 200 c 2
 529 400 l 2
 529 419 537 437 550 450 c 2
 750 650 l 2
EndSplineSet
Validated: 1
EndChar

StartChar: Y
Encoding: 58 89 58
Width: 1000
VWidth: 800
Flags: W
HStem: -71 21G<380.5 419.5 580.5 619.5> 651 20G<191 209 791 809>
VStem: 329 142<-50.125 371> 529 142<-50.125 371>
LayerCount: 2
Fore
SplineSet
150 650 m 0
 164 664 182 671 200 671 c 0
 218 671 236 664 250 650 c 2
 450 450 l 2
 463 437 471 419 471 400 c 2
 471 0 l 2
 471 -39 439 -71 400 -71 c 0
 361 -71 329 -39 329 0 c 2
 329 371 l 1
 150 550 l 2
 136 564 129 582 129 600 c 0
 129 618 136 636 150 650 c 0
750 650 m 2
 764 664 782 671 800 671 c 0
 818 671 836 664 850 650 c 0
 864 636 871 618 871 600 c 0
 871 582 864 564 850 550 c 2
 671 371 l 1
 671 0 l 2
 671 -39 639 -71 600 -71 c 0
 561 -71 529 -39 529 0 c 2
 529 400 l 2
 529 419 537 437 550 450 c 2
 750 650 l 2
EndSplineSet
Validated: 1
EndChar

StartChar: Z
Encoding: 59 90 59
Width: 1000
VWidth: 800
Flags: W
HStem: -71 142<272 851.125> 529 142<150.875 730>
VStem: 130 142<71 149> 730 142<451 529>
LayerCount: 2
Fore
SplineSet
801 671 m 2
 840 671 872 639 872 600 c 2
 872 400 l 2
 872 369 852 342 823 333 c 2
 618 264 l 2
 611 262 603 261 596 261 c 0
 566 261 539 279 529 309 c 0
 526 317 525 324 525 332 c 0
 525 361 544 389 573 399 c 2
 730 451 l 1
 730 529 l 1
 201 529 l 2
 162 529 130 561 130 600 c 0
 130 639 162 671 201 671 c 2
 801 671 l 2
473 291 m 0
 475 284 476 276 476 269 c 0
 476 239 458 211 428 201 c 2
 272 149 l 1
 272 71 l 1
 801 71 l 2
 840 71 872 39 872 -0 c 0
 872 -39 840 -71 801 -71 c 2
 201 -71 l 2
 162 -71 130 -39 130 -0 c 2
 130 200 l 2
 130 230 150 257 179 267 c 2
 384 335 l 2
 391 338 399 339 406 339 c 0
 435 339 463 322 473 291 c 0
EndSplineSet
Validated: 1
EndChar

StartChar: bracketleft
Encoding: 60 91 60
Width: 1000
VWidth: 800
Flags: W
HStem: -71 142<571 750.125> 523 142<569 748.125>
VStem: 429 142<71 250.125 345.096 523>
LayerCount: 2
Fore
SplineSet
498 665 m 2
 698 665 l 1
 737 665 769 633 769 594 c 0
 769 555 737 523 698 523 c 2
 569 523 l 1
 569 394 l 1
 569 355 537 323 498 323 c 0
 459 323 427 355 427 394 c 2
 427 594 l 1
 427 633 459 665 498 665 c 2
500 271 m 0
 539 271 571 239 571 200 c 2
 571 71 l 1
 700 71 l 1
 739 71 771 39 771 0 c 0
 771 -39 739 -71 700 -71 c 2
 500 -71 l 1
 461 -71 429 -39 429 0 c 2
 429 200 l 1
 429 239 461 271 500 271 c 0
EndSplineSet
Validated: 1
EndChar

StartChar: bracketright
Encoding: 62 93 62
Width: 1000
VWidth: 800
Flags: W
HStem: -71 342<449.875 550.125> -71 142<249.875 429> 329 342<449.875 550.125> 529 142<249.875 429>
VStem: 429 142<71 250.125 349.875 529>
LayerCount: 2
Fore
SplineSet
300 671 m 2x18
 500 671 l 1
 539 671 571 639 571 600 c 2
 571 400 l 1
 571 361 539 329 500 329 c 0x28
 461 329 429 361 429 400 c 2
 429 529 l 1
 300 529 l 1
 261 529 229 561 229 600 c 0
 229 639 261 671 300 671 c 2x18
500 271 m 0x88
 539 271 571 239 571 200 c 2
 571 0 l 1
 571 -39 539 -71 500 -71 c 2x88
 300 -71 l 1
 261 -71 229 -39 229 0 c 0
 229 39 261 71 300 71 c 2
 429 71 l 1x48
 429 200 l 1
 429 239 461 271 500 271 c 0x88
EndSplineSet
Validated: 1
EndChar

StartChar: a
Encoding: 66 97 66
Width: 1000
VWidth: 800
Flags: W
HStem: -86 40<162.766 237.234 762.766 837.234> 114 40<286 437.068 562.932 714> 246 40<286 437.068 562.932 714> 646 40<363.842 436.608 563.392 636.158>
VStem: 114 40<-37.0681 435.125> 246 40<-37.0681 114 286 364> 446 40<162.766 237.234 562.483 636.608> 514 40<162.766 237.234 562.483 637.256> 714 40<-37.0681 114 286 364> 846 40<-37.0681 435.125>
LayerCount: 2
Fore
SplineSet
539 661 m 0
 556 678 578 686 600 686 c 0
 622 686 644 678 661 661 c 2
 861 461 l 2
 877 445 886 423 886 400 c 2
 886 0 l 2
 886 -47 847 -86 800 -86 c 0
 753 -86 714 -47 714 0 c 2
 714 114 l 1
 600 114 l 2
 553 114 514 153 514 200 c 0
 514 247 553 286 600 286 c 2
 714 286 l 1
 714 364 l 1
 539 539 l 2
 522 556 514 578 514 600 c 0
 514 622 522 644 539 661 c 0
339 661 m 2
 356 678 378 686 400 686 c 0
 422 686 444 678 461 661 c 0
 478 644 486 622 486 600 c 0
 486 578 478 556 461 539 c 2
 286 364 l 1
 286 286 l 1
 400 286 l 2
 447 286 486 247 486 200 c 0
 486 153 447 114 400 114 c 2
 286 114 l 1
 286 0 l 2
 286 -47 247 -86 200 -86 c 0
 153 -86 114 -47 114 0 c 2
 114 400 l 2
 114 439 139 460 139 461 c 2
 339 661 l 2
632 632 m 2
 623 641 611 646 600 646 c 0
 588 646 576 641 568 632 c 0
 559 623 554 612 554 600 c 0
 554 588 559 577 568 568 c 2
 754 381 l 1
 754 246 l 1
 600 246 l 2
 575 246 554 225 554 200 c 0
 554 175 575 154 600 154 c 2
 754 154 l 1
 754 0 l 2
 754 -25 775 -46 800 -46 c 0
 825 -46 846 -25 846 0 c 2
 846 400 l 2
 846 412 841 424 832 432 c 2
 632 632 l 2
432 632 m 0
 423 641 412 646 400 646 c 0
 388 646 377 641 368 632 c 2
 168 432 l 2
 159 424 154 412 154 400 c 2
 154 0 l 2
 154 -25 175 -46 200 -46 c 0
 225 -46 246 -25 246 0 c 2
 246 154 l 1
 400 154 l 2
 425 154 446 175 446 200 c 0
 446 225 425 246 400 246 c 2
 246 246 l 1
 246 381 l 1
 432 568 l 2
 441 577 446 588 446 600 c 0
 446 612 441 623 432 632 c 0
EndSplineSet
Validated: 1
EndChar

StartChar: b
Encoding: 67 98 67
Width: 1000
VWidth: 800
Flags: W
HStem: -86 40<162.938 836.342> 46 40<286 714> 114 40<362.932 714> 246 40<162.424 237.234 362.932 837.062> 314 40<162.766 237.234 362.932 836.342> 446 40<362.932 714> 514 40<286 714> 646 40<162.932 837.062>
VStem: 114 40<-36.3416 237.068 362.932 637.068> 246 40<86 237.068 362.932 514> 314 40<162.766 237.234 362.766 437.234> 714 40<86 114 486 514> 846 40<-37.0625 236.342 362.938 636.342>
LayerCount: 2
Fore
SplineSet
200 686 m 1
 800 686 l 2
 856 686 886 637 886 600 c 2
 886 400 l 2
 886 344 837 314 800 314 c 2
 400 314 l 2
 353 314 314 353 314 400 c 0
 314 447 353 486 400 486 c 2
 714 486 l 1
 714 514 l 1
 286 514 l 1
 286 400 l 2
 286 353 247 314 200 314 c 0
 153 314 114 353 114 400 c 2
 114 600 l 2
 114 647 153 686 200 686 c 1
154 600 m 2
 154 400 l 2
 154 375 175 354 200 354 c 0
 225 354 246 375 246 400 c 2
 246 534 l 2
 246 545 255 554 266 554 c 2
 734 554 l 2
 745 554 754 545 754 534 c 2
 754 466 l 2
 754 455 745 446 734 446 c 2
 400 446 l 2
 375 446 354 425 354 400 c 0
 354 375 375 354 400 354 c 2
 800 354 l 2
 825 354 846 375 846 400 c 2
 846 600 l 2
 846 625 825 646 800 646 c 2
 200 646 l 1
 174 646 154 624 154 600 c 2
114 200 m 2
 114 247 153 286 200 286 c 0
 247 286 286 247 286 200 c 2
 286 86 l 1
 714 86 l 1
 714 114 l 1
 400 114 l 2
 353 114 314 153 314 200 c 0
 314 247 353 286 400 286 c 2
 800 286 l 2
 856 286 886 237 886 200 c 2
 886 -0 l 2
 886 -56 837 -86 800 -86 c 2
 200 -86 l 2
 144 -86 114 -37 114 0 c 2
 114 200 l 2
200 246 m 0
 180 246 154 231 154 200 c 2
 154 0 l 2
 154 -25 175 -46 200 -46 c 1
 800 -46 l 2
 825 -46 846 -25 846 0 c 2
 846 200 l 2
 846 225 825 246 800 246 c 2
 400 246 l 2
 375 246 354 225 354 200 c 0
 354 175 375 154 400 154 c 2
 734 154 l 2
 745 154 754 145 754 134 c 2
 754 66 l 2
 754 55 745 46 734 46 c 2
 266 46 l 2
 255 46 246 55 246 66 c 2
 246 200 l 2
 246 225 225 246 200 246 c 0
EndSplineSet
Validated: 1
EndChar

StartChar: c
Encoding: 68 99 68
Width: 1000
VWidth: 800
Flags: W
HStem: -86 40<364.875 837.068> 46 40<436 837.068> 246 40<163.392 237.423> 314 40<163.392 237.423> 514 40<436 837.068> 646 40<364.875 837.068>
VStem: 114 40<163.842 237.256 363.392 436.158> 846 40<-37.2342 37.2342 562.766 637.234>
LayerCount: 2
Fore
SplineSet
400 686 m 2
 800 686 l 2
 847 686 886 647 886 600 c 0
 886 553 847 514 800 514 c 2
 436 514 l 1
 261 339 l 2
 244 322 222 314 200 314 c 0
 178 314 156 322 139 339 c 0
 122 356 114 378 114 400 c 0
 114 422 122 444 139 461 c 2
 339 661 l 2
 355 677 377 686 400 686 c 2
400 646 m 2
 388 646 376 641 368 632 c 2
 168 432 l 2
 159 423 154 412 154 400 c 0
 154 388 159 377 168 368 c 0
 177 359 188 354 200 354 c 0
 212 354 223 359 232 368 c 2
 413 548 l 2
 417 552 422 554 427 554 c 2
 800 554 l 2
 825 554 846 575 846 600 c 0
 846 625 825 646 800 646 c 2
 400 646 l 2
139 261 m 0
 156 278 178 286 200 286 c 0
 222 286 244 278 261 261 c 2
 436 86 l 1
 800 86 l 2
 847 86 886 47 886 0 c 0
 886 -47 847 -86 800 -86 c 2
 400 -86 l 2
 361 -86 340 -61 339 -61 c 2
 139 139 l 2
 122 156 114 178 114 200 c 0
 114 222 122 244 139 261 c 0
232 232 m 2
 223 241 211 246 200 246 c 0
 188 246 176 241 168 232 c 0
 159 223 154 212 154 200 c 0
 154 188 159 177 168 168 c 2
 368 -32 l 2
 376 -41 388 -46 400 -46 c 2
 800 -46 l 2
 825 -46 846 -25 846 0 c 0
 846 25 825 46 800 46 c 2
 427 46 l 2
 422 46 417 48 413 52 c 2
 232 232 l 2
EndSplineSet
Validated: 1
EndChar

StartChar: d
Encoding: 69 100 69
Width: 1000
VWidth: 800
Flags: W
HStem: -86 40<162.938 624.656> 46 40<286 552> 246 40<162.766 237.234 762.254 836.978> 314 40<162.766 237.234 762.254 836.978> 514 40<286 552> 646 40<162.932 624.656>
VStem: 114 40<-36.3416 237.068 362.932 637.068> 246 40<86 237.068 362.932 514> 846 40<163.561 233.634 366.366 436.439>
LayerCount: 2
Fore
SplineSet
200 686 m 1
 586 686 l 2
 608 686 629 677 645 663 c 2
 859 463 l 2
 877 446 886 423 886 400 c 0
 886 379 878 358 863 341 c 0
 846 323 823 314 800 314 c 0
 779 314 758 322 741 337 c 2
 552 514 l 1
 286 514 l 1
 286 400 l 2
 286 353 247 314 200 314 c 0
 153 314 114 353 114 400 c 2
 114 600 l 2
 114 647 153 686 200 686 c 1
200 646 m 2
 176 646 154 626 154 600 c 2
 154 400 l 2
 154 375 175 354 200 354 c 0
 225 354 246 375 246 400 c 2
 246 534 l 2
 246 545 255 554 266 554 c 2
 560 554 l 2
 565 554 570 552 574 549 c 2
 769 367 l 2
 778 358 789 354 800 354 c 0
 812 354 824 359 833 369 c 0
 842 378 846 389 846 400 c 0
 846 412 841 424 831 433 c 2
 618 633 l 2
 609 641 598 646 586 646 c 2
 200 646 l 2
114 200 m 2
 114 247 153 286 200 286 c 0
 247 286 286 247 286 200 c 2
 286 86 l 1
 552 86 l 1
 741 263 l 2
 758 278 779 286 800 286 c 0
 823 286 846 277 863 259 c 0
 878 242 886 221 886 200 c 0
 886 177 877 154 859 137 c 1
 645 -63 l 2
 629 -77 608 -86 586 -86 c 2
 200 -86 l 2
 144 -86 114 -37 114 0 c 2
 114 200 l 2
833 231 m 0
 824 241 812 246 800 246 c 0
 789 246 778 242 769 233 c 2
 574 51 l 2
 570 48 565 46 560 46 c 2
 266 46 l 2
 255 46 246 55 246 66 c 2
 246 200 l 2
 246 225 225 246 200 246 c 0
 175 246 154 225 154 200 c 2
 154 0 l 2
 154 -31 180 -46 200 -46 c 2
 586 -46 l 2
 598 -46 609 -41 618 -33 c 2
 831 167 l 2
 841 176 846 188 846 200 c 0
 846 211 842 222 833 231 c 0
EndSplineSet
Validated: 1
EndChar

StartChar: e
Encoding: 70 101 70
Width: 1000
VWidth: 800
Flags: W
HStem: -86 40<162.938 837.068> 46 40<286 837.068> 114 40<286 837.068> 246 40<162.932 837.068> 314 40<162.938 837.068> 446 40<286 837.068> 514 40<286 837.068> 646 40<162.932 837.068>
VStem: 114 40<-36.3416 237.068 363.658 637.068> 246 40<86 114 486 514> 846 40<-37.2342 37.2342 162.766 237.234 362.766 437.234 562.766 637.234>
LayerCount: 2
Fore
SplineSet
200 686 m 2
 800 686 l 2
 847 686 886 647 886 600 c 0
 886 553 847 514 800 514 c 2
 286 514 l 1
 286 486 l 1
 800 486 l 2
 847 486 886 447 886 400 c 0
 886 353 847 314 800 314 c 2
 200 314 l 2
 144 314 114 363 114 400 c 2
 114 600 l 2
 114 647 153 686 200 686 c 2
200 646 m 2
 174 646 154 624 154 600 c 2
 154 400 l 2
 154 369 180 354 200 354 c 2
 800 354 l 2
 825 354 846 375 846 400 c 0
 846 425 825 446 800 446 c 2
 266 446 l 2
 255 446 246 455 246 466 c 2
 246 534 l 2
 246 545 255 554 266 554 c 2
 800 554 l 2
 825 554 846 575 846 600 c 0
 846 625 825 646 800 646 c 2
 200 646 l 2
200 286 m 2
 800 286 l 2
 847 286 886 247 886 200 c 0
 886 153 847 114 800 114 c 2
 286 114 l 1
 286 86 l 1
 800 86 l 2
 847 86 886 47 886 0 c 0
 886 -47 847 -86 800 -86 c 2
 200 -86 l 2
 144 -86 114 -37 114 -0 c 2
 114 200 l 2
 114 247 153 286 200 286 c 2
200 246 m 2
 176 246 154 226 154 200 c 2
 154 0 l 2
 154 -31 180 -46 200 -46 c 2
 800 -46 l 2
 825 -46 846 -25 846 0 c 0
 846 25 825 46 800 46 c 2
 266 46 l 2
 255 46 246 55 246 66 c 2
 246 134 l 2
 246 145 255 154 266 154 c 2
 800 154 l 2
 825 154 846 175 846 200 c 0
 846 225 825 246 800 246 c 2
 200 246 l 2
EndSplineSet
Validated: 1
EndChar

StartChar: f
Encoding: 71 102 71
Width: 1000
VWidth: 800
Flags: W
HStem: -86 40<162.766 237.234> 246 40<162.766 237.234> 314 40<162.938 837.068> 446 40<286 837.068> 514 40<286 837.068> 646 40<162.932 837.068>
VStem: 114 40<-37.0681 237.068 363.658 637.068> 246 40<-37.0681 237.068 486 514> 846 40<362.766 437.234 562.766 637.234>
LayerCount: 2
Fore
SplineSet
200 686 m 2
 800 686 l 2
 847 686 886 647 886 600 c 0
 886 553 847 514 800 514 c 2
 286 514 l 1
 286 486 l 1
 800 486 l 2
 847 486 886 447 886 400 c 0
 886 353 847 314 800 314 c 2
 200 314 l 2
 144 314 114 363 114 400 c 2
 114 600 l 2
 114 647 153 686 200 686 c 2
200 646 m 2
 174 646 154 624 154 600 c 2
 154 400 l 2
 154 369 180 354 200 354 c 2
 800 354 l 2
 825 354 846 375 846 400 c 0
 846 425 825 446 800 446 c 2
 266 446 l 2
 255 446 246 455 246 466 c 2
 246 534 l 2
 246 545 255 554 266 554 c 2
 800 554 l 2
 825 554 846 575 846 600 c 0
 846 625 825 646 800 646 c 2
 200 646 l 2
114 200 m 2
 114 247 153 286 200 286 c 0
 247 286 286 247 286 200 c 2
 286 0 l 2
 286 -47 247 -86 200 -86 c 0
 153 -86 114 -47 114 0 c 2
 114 200 l 2
246 200 m 2
 246 225 225 246 200 246 c 0
 175 246 154 225 154 200 c 2
 154 0 l 2
 154 -25 175 -46 200 -46 c 0
 225 -46 246 -25 246 0 c 2
 246 200 l 2
EndSplineSet
Validated: 1
EndChar

StartChar: g
Encoding: 72 103 72
Width: 1000
VWidth: 800
Flags: W
HStem: -86 40<312.932 836.342> 46 40<312.932 714> 64 40<162.766 237.234> 346 40<762.424 837.234> 514 40<286 537.068> 646 40<162.932 537.068>
VStem: 114 40<112.932 637.068> 246 40<112.932 514> 264 40<-37.2342 37.2342> 546 40<562.766 637.234> 714 40<86 337.068> 846 40<-37.0625 337.068>
LayerCount: 2
Fore
SplineSet
200 686 m 2xbf70
 500 686 l 2
 547 686 586 647 586 600 c 0
 586 553 547 514 500 514 c 2
 286 514 l 1
 286 150 l 2
 286 103 247 64 200 64 c 0
 153 64 114 103 114 150 c 2
 114 600 l 2
 114 647 153 686 200 686 c 2xbf70
200 646 m 2
 176 646 154 626 154 600 c 2
 154 150 l 2
 154 125 175 104 200 104 c 0
 225 104 246 125 246 150 c 2
 246 534 l 2
 246 545 255 554 266 554 c 2
 500 554 l 2
 525 554 546 575 546 600 c 0
 546 625 525 646 500 646 c 2
 200 646 l 2
714 300 m 2
 714 347 753 386 800 386 c 0
 847 386 886 347 886 300 c 2
 886 -0 l 2
 886 -56 837 -86 800 -86 c 2
 350 -86 l 2
 303 -86 264 -47 264 0 c 0
 264 47 303 86 350 86 c 2
 714 86 l 1xdef0
 714 300 l 2
800 346 m 0
 780 346 754 331 754 300 c 2
 754 66 l 2
 754 55 745 46 734 46 c 2
 350 46 l 2
 325 46 304 25 304 0 c 0
 304 -25 325 -46 350 -46 c 2
 800 -46 l 2
 825 -46 846 -25 846 0 c 2
 846 300 l 2
 846 325 825 346 800 346 c 0
EndSplineSet
Validated: 1
EndChar

StartChar: h
Encoding: 73 104 73
Width: 1000
VWidth: 800
Flags: W
HStem: -86 40<162.766 237.234 762.766 837.234> 214 40<286 437.068 562.932 714> 346 40<286 437.068 562.932 714> 646 40<162.766 237.234 762.766 837.234>
VStem: 114 40<-37.0681 637.068> 246 40<-37.0681 214 386 637.068> 446 40<262.766 337.234> 514 40<262.766 337.234> 714 40<-37.0681 214 386 637.068> 846 40<-37.0681 637.068>
LayerCount: 2
Fore
SplineSet
200 686 m 0
 247 686 286 647 286 600 c 2
 286 386 l 1
 400 386 l 2
 447 386 486 347 486 300 c 0
 486 253 447 214 400 214 c 2
 286 214 l 1
 286 0 l 2
 286 -47 247 -86 200 -86 c 0
 153 -86 114 -47 114 0 c 2
 114 600 l 2
 114 647 153 686 200 686 c 0
800 686 m 0
 847 686 886 647 886 600 c 2
 886 0 l 2
 886 -47 847 -86 800 -86 c 0
 753 -86 714 -47 714 0 c 2
 714 214 l 1
 600 214 l 2
 553 214 514 253 514 300 c 0
 514 347 553 386 600 386 c 2
 714 386 l 1
 714 600 l 2
 714 647 753 686 800 686 c 0
200 646 m 0
 175 646 154 625 154 600 c 2
 154 0 l 2
 154 -25 175 -46 200 -46 c 0
 225 -46 246 -25 246 0 c 2
 246 234 l 1
 246 245 255 254 266 254 c 2
 400 254 l 2
 425 254 446 275 446 300 c 0
 446 325 425 346 400 346 c 2
 266 346 l 1
 255 346 246 355 246 366 c 2
 246 600 l 2
 246 625 225 646 200 646 c 0
800 646 m 0
 775 646 754 625 754 600 c 2
 754 366 l 1
 754 355 745 346 734 346 c 2
 600 346 l 2
 575 346 554 325 554 300 c 0
 554 275 575 254 600 254 c 2
 734 254 l 1
 745 254 754 245 754 234 c 2
 754 0 l 2
 754 -25 775 -46 800 -46 c 0
 825 -46 846 -25 846 0 c 2
 846 600 l 2
 846 625 825 646 800 646 c 0
EndSplineSet
Validated: 1
EndChar

StartChar: i
Encoding: 74 105 74
Width: 1000
VWidth: 800
Flags: W
HStem: -86 40<162.932 837.068> 46 40<162.932 414 586 837.068> 246 40<462.766 537.234> 314 40<462.766 537.234> 514 40<162.932 414 586 837.068> 646 40<162.932 837.068>
VStem: 114 40<-37.2342 37.2342 562.766 637.234> 414 40<86 237.068 362.932 514> 546 40<86 237.068 362.932 514> 846 40<-37.2342 37.2342 562.766 637.234>
LayerCount: 2
Fore
SplineSet
200 686 m 2
 800 686 l 2
 847 686 886 647 886 600 c 0
 886 553 847 514 800 514 c 2
 586 514 l 1
 586 400 l 2
 586 353 547 314 500 314 c 0
 453 314 414 353 414 400 c 2
 414 514 l 1
 200 514 l 2
 153 514 114 553 114 600 c 0
 114 647 153 686 200 686 c 2
200 646 m 2
 175 646 154 625 154 600 c 0
 154 575 175 554 200 554 c 2
 434 554 l 1
 445 554 454 545 454 534 c 2
 454 400 l 2
 454 375 475 354 500 354 c 0
 525 354 546 375 546 400 c 2
 546 534 l 1
 546 545 555 554 566 554 c 2
 800 554 l 2
 825 554 846 575 846 600 c 0
 846 625 825 646 800 646 c 2
 200 646 l 2
500 286 m 0
 547 286 586 247 586 200 c 2
 586 86 l 1
 800 86 l 2
 847 86 886 47 886 0 c 0
 886 -47 847 -86 800 -86 c 2
 200 -86 l 2
 153 -86 114 -47 114 0 c 0
 114 47 153 86 200 86 c 2
 414 86 l 1
 414 200 l 2
 414 247 453 286 500 286 c 0
500 246 m 0
 475 246 454 225 454 200 c 2
 454 66 l 1
 454 55 445 46 434 46 c 2
 200 46 l 2
 175 46 154 25 154 0 c 0
 154 -25 175 -46 200 -46 c 2
 800 -46 l 2
 825 -46 846 -25 846 0 c 0
 846 25 825 46 800 46 c 2
 566 46 l 1
 555 46 546 55 546 66 c 2
 546 200 l 2
 546 225 525 246 500 246 c 0
EndSplineSet
Validated: 1
EndChar

StartChar: j
Encoding: 75 106 75
Width: 1000
VWidth: 800
Flags: W
HStem: -86 40<162.938 687.068> 46 40<286 687.068> 64 40<762.766 837.234> 346 40<162.766 237.234> 514 40<462.932 714> 646 40<462.932 837.062>
VStem: 114 40<-36.3416 337.068> 246 40<86 337.068> 414 40<562.766 637.234> 696 40<-37.2342 37.2342> 714 40<112.932 514> 846 40<112.932 636.342>
LayerCount: 2
Fore
SplineSet
500 686 m 2xbfb0
 800 686 l 2
 856 686 886 637 886 600 c 2
 886 150 l 2
 886 103 847 64 800 64 c 0
 753 64 714 103 714 150 c 2
 714 514 l 1
 500 514 l 2
 453 514 414 553 414 600 c 0
 414 647 453 686 500 686 c 2xbfb0
500 646 m 2
 475 646 454 625 454 600 c 0
 454 575 475 554 500 554 c 2
 734 554 l 2
 745 554 754 545 754 534 c 2
 754 150 l 2
 754 125 775 104 800 104 c 0
 825 104 846 125 846 150 c 2
 846 600 l 2
 846 625 825 646 800 646 c 2
 500 646 l 2
200 386 m 0
 247 386 286 347 286 300 c 2
 286 86 l 1
 650 86 l 2
 697 86 736 47 736 0 c 0xdfd0
 736 -47 697 -86 650 -86 c 2
 200 -86 l 2
 144 -86 114 -37 114 0 c 2
 114 300 l 2
 114 347 153 386 200 386 c 0
200 346 m 0
 175 346 154 325 154 300 c 2
 154 0 l 2
 154 -31 180 -46 200 -46 c 2
 650 -46 l 2
 675 -46 696 -25 696 0 c 0
 696 25 675 46 650 46 c 2
 266 46 l 2
 255 46 246 55 246 66 c 2
 246 300 l 2
 246 325 225 346 200 346 c 0
EndSplineSet
Validated: 1
EndChar

StartChar: k
Encoding: 76 107 76
Width: 1000
VWidth: 800
Flags: W
HStem: -86 40<162.766 237.234 762.577 836.608> 114 40<286 564> 246 40<162.932 635.125> 314 40<162.938 635.125> 446 40<286 564> 646 40<162.766 237.234 762.577 836.608>
VStem: 114 40<-37.0681 237.068 363.658 637.068> 246 40<-37.0681 114 486 637.068> 846 40<-36.608 36.1576 563.842 636.608>
LayerCount: 2
Fore
SplineSet
200 686 m 0
 247 686 286 647 286 600 c 2
 286 486 l 1
 564 486 l 1
 739 661 l 2
 756 678 778 686 800 686 c 0
 822 686 844 678 861 661 c 0
 878 644 886 622 886 600 c 0
 886 578 878 556 861 539 c 2
 661 339 l 2
 645 323 623 314 600 314 c 2
 200 314 l 2
 144 314 114 363 114 400 c 2
 114 600 l 2
 114 647 153 686 200 686 c 0
832 632 m 0
 823 641 812 646 800 646 c 0
 788 646 777 641 768 632 c 2
 587 452 l 2
 583 448 578 446 573 446 c 2
 266 446 l 2
 255 446 246 455 246 466 c 2
 246 600 l 2
 246 625 225 646 200 646 c 0
 175 646 154 625 154 600 c 2
 154 400 l 2
 154 369 180 354 200 354 c 2
 600 354 l 2
 612 354 624 359 632 368 c 2
 832 568 l 2
 841 577 846 588 846 600 c 0
 846 612 841 623 832 632 c 0
200 286 m 1
 600 286 l 2
 639 286 660 261 661 261 c 2
 861 61 l 2
 878 44 886 22 886 0 c 0
 886 -22 878 -44 861 -61 c 0
 844 -78 822 -86 800 -86 c 0
 778 -86 756 -78 739 -61 c 2
 564 114 l 1
 286 114 l 1
 286 0 l 2
 286 -47 247 -86 200 -86 c 0
 153 -86 114 -47 114 0 c 2
 114 200 l 2
 114 247 153 286 200 286 c 1
200 246 m 2
 174 246 154 224 154 200 c 2
 154 0 l 2
 154 -25 175 -46 200 -46 c 0
 225 -46 246 -25 246 0 c 2
 246 134 l 2
 246 145 255 154 266 154 c 2
 573 154 l 2
 578 154 583 152 587 148 c 2
 768 -32 l 2
 777 -41 788 -46 800 -46 c 0
 812 -46 823 -41 832 -32 c 0
 841 -23 846 -12 846 0 c 0
 846 12 841 23 832 32 c 2
 632 232 l 2
 624 241 612 246 600 246 c 2
 200 246 l 2
EndSplineSet
Validated: 1
EndChar

StartChar: l
Encoding: 77 108 77
Width: 1000
VWidth: 800
Flags: W
HStem: -86 40<312.932 837.068> 46 40<312.932 837.068> 64 40<162.766 237.234> 646 40<162.766 237.234>
VStem: 114 40<112.932 637.068> 246 40<112.932 637.068> 264 40<-37.2342 37.2342> 846 40<-37.2342 37.2342>
LayerCount: 2
Fore
SplineSet
200 686 m 0xbd
 247 686 286 647 286 600 c 2
 286 150 l 2
 286 103 247 64 200 64 c 0
 153 64 114 103 114 150 c 2
 114 600 l 2
 114 647 153 686 200 686 c 0xbd
200 646 m 0
 175 646 154 625 154 600 c 2
 154 150 l 2
 154 125 175 104 200 104 c 0
 225 104 246 125 246 150 c 2
 246 600 l 2
 246 625 225 646 200 646 c 0
350 86 m 2xdb
 800 86 l 2
 847 86 886 47 886 0 c 0
 886 -47 847 -86 800 -86 c 2
 350 -86 l 2
 303 -86 264 -47 264 0 c 0
 264 47 303 86 350 86 c 2xdb
350 46 m 2
 325 46 304 25 304 0 c 0
 304 -25 325 -46 350 -46 c 2
 800 -46 l 2
 825 -46 846 -25 846 0 c 0
 846 25 825 46 800 46 c 2
 350 46 l 2
EndSplineSet
Validated: 1
EndChar

StartChar: m
Encoding: 78 109 78
Width: 1000
VWidth: 800
Flags: W
HStem: -86 40<162.766 237.234 362.766 437.234 562.766 637.234 762.766 837.234> 514 40<286 314 686 714> 646 40<162.932 437.062 562.932 837.062>
VStem: 114 40<-37.0681 637.068> 246 40<-37.0681 514> 314 40<-37.0681 514> 446 40<-37.0681 636.342> 514 40<-37.0681 637.068> 646 40<-37.0681 514> 714 40<-37.0681 514> 846 40<-37.0681 636.342>
LayerCount: 2
Fore
SplineSet
200 686 m 0
 267 686 333 686 400 686 c 0
 456 686 486 637 486 600 c 2
 486 0 l 2
 486 -47 447 -86 400 -86 c 0
 353 -86 314 -47 314 0 c 2
 314 514 l 1
 286 514 l 1
 286 0 l 2
 286 -47 247 -86 200 -86 c 0
 153 -86 114 -47 114 0 c 2
 114 600 l 2
 114 647 153 686 200 686 c 0
600 686 m 0
 667 686 733 686 800 686 c 0
 856 686 886 637 886 600 c 2
 886 0 l 2
 886 -47 847 -86 800 -86 c 0
 753 -86 714 -47 714 0 c 2
 714 514 l 1
 686 514 l 1
 686 0 l 2
 686 -47 647 -86 600 -86 c 0
 553 -86 514 -47 514 0 c 2
 514 600 l 2
 514 647 553 686 600 686 c 0
200 646 m 2
 169 646 154 620 154 600 c 2
 154 0 l 2
 154 -25 175 -46 200 -46 c 0
 225 -46 246 -25 246 0 c 2
 246 534 l 2
 246 545 255 554 266 554 c 2
 334 554 l 2
 345 554 354 545 354 534 c 2
 354 0 l 2
 354 -25 375 -46 400 -46 c 0
 425 -46 446 -25 446 0 c 2
 446 600 l 2
 446 625 425 646 400 646 c 2
 200 646 l 2
600 646 m 2
 569 646 554 620 554 600 c 2
 554 0 l 2
 554 -25 575 -46 600 -46 c 0
 625 -46 646 -25 646 0 c 2
 646 534 l 2
 646 545 655 554 666 554 c 2
 734 554 l 2
 745 554 754 545 754 534 c 2
 754 0 l 2
 754 -25 775 -46 800 -46 c 0
 825 -46 846 -25 846 0 c 2
 846 600 l 2
 846 625 825 646 800 646 c 2
 600 646 l 2
EndSplineSet
Validated: 1
EndChar

StartChar: n
Encoding: 79 110 79
Width: 1000
VWidth: 800
Flags: W
HStem: -86 40<162.766 237.234 462.938 836.342> 46 40<586 714> 246 40<462.766 537.234> 314 40<462.766 537.234> 514 40<286 414> 646 40<162.932 537.062 762.766 837.234>
VStem: 114 40<-37.0681 637.068> 246 40<-37.0681 514> 414 40<-36.3416 237.068 362.932 514> 546 40<86 237.068 362.932 636.342> 714 40<86 637.068> 846 40<-37.0625 637.068>
LayerCount: 2
Fore
SplineSet
200 686 m 2
 500 686 l 2
 556 686 586 637 586 600 c 2
 586 400 l 2
 586 353 547 314 500 314 c 0
 453 314 414 353 414 400 c 2
 414 514 l 1
 286 514 l 1
 286 0 l 2
 286 -47 247 -86 200 -86 c 0
 153 -86 114 -47 114 0 c 2
 114 600 l 2
 114 647 153 686 200 686 c 2
800 686 m 0
 847 686 886 647 886 600 c 2
 886 -0 l 2
 886 -56 837 -86 800 -86 c 2
 500 -86 l 2
 444 -86 414 -37 414 0 c 2
 414 200 l 2
 414 247 453 286 500 286 c 0
 547 286 586 247 586 200 c 2
 586 86 l 1
 714 86 l 1
 714 600 l 2
 714 647 753 686 800 686 c 0
200 646 m 2
 169 646 154 620 154 600 c 2
 154 0 l 2
 154 -25 175 -46 200 -46 c 0
 225 -46 246 -25 246 0 c 2
 246 534 l 2
 246 545 255 554 266 554 c 2
 434 554 l 2
 445 554 454 545 454 534 c 2
 454 400 l 2
 454 375 475 354 500 354 c 0
 525 354 546 375 546 400 c 2
 546 600 l 2
 546 625 525 646 500 646 c 2
 200 646 l 2
800 646 m 0
 775 646 754 625 754 600 c 2
 754 66 l 2
 754 55 745 46 734 46 c 2
 566 46 l 2
 555 46 546 55 546 66 c 2
 546 200 l 2
 546 225 525 246 500 246 c 0
 475 246 454 225 454 200 c 2
 454 0 l 2
 454 -31 480 -46 500 -46 c 2
 800 -46 l 2
 825 -46 846 -25 846 0 c 2
 846 600 l 2
 846 625 825 646 800 646 c 0
EndSplineSet
Validated: 1
EndChar

StartChar: o
Encoding: 80 111 80
Width: 1000
VWidth: 800
Flags: W
HStem: -86 40<162.938 836.342> 46 40<286 714> 246 40<162.766 237.234 762.766 837.234> 314 40<162.766 237.234 762.766 837.234> 514 40<286 714> 646 40<162.932 837.062>
VStem: 114 40<-36.3416 237.068 362.932 637.068> 246 40<86 237.068 362.932 514> 714 40<86 237.068 362.932 514> 846 40<-37.0625 237.068 362.932 636.342>
LayerCount: 2
Fore
SplineSet
200 686 m 2
 800 686 l 2
 856 686 886 637 886 600 c 2
 886 400 l 2
 886 353 847 314 800 314 c 0
 753 314 714 353 714 400 c 2
 714 514 l 1
 286 514 l 1
 286 400 l 2
 286 353 247 314 200 314 c 0
 153 314 114 353 114 400 c 2
 114 600 l 2
 114 647 153 686 200 686 c 2
200 646 m 2
 176 646 154 626 154 600 c 2
 154 400 l 2
 154 375 175 354 200 354 c 0
 225 354 246 375 246 400 c 2
 246 534 l 2
 246 545 255 554 266 554 c 2
 734 554 l 2
 745 554 754 545 754 534 c 2
 754 400 l 2
 754 375 775 354 800 354 c 0
 825 354 846 375 846 400 c 2
 846 600 l 2
 846 625 825 646 800 646 c 2
 200 646 l 2
200 286 m 1
 247 286 286 247 286 200 c 2
 286 86 l 1
 714 86 l 1
 714 200 l 2
 714 247 753 286 800 286 c 0
 847 286 886 247 886 200 c 2
 886 -0 l 2
 886 -56 837 -86 800 -86 c 2
 200 -86 l 2
 144 -86 114 -37 114 0 c 2
 114 200 l 2
 114 247 153 286 200 286 c 1
200 246 m 2
 175 246 154 225 154 200 c 2
 154 0 l 2
 154 -31 180 -46 200 -46 c 2
 800 -46 l 2
 825 -46 846 -25 846 0 c 2
 846 200 l 2
 846 225 825 246 800 246 c 0
 775 246 754 225 754 200 c 2
 754 66 l 2
 754 55 745 46 734 46 c 2
 266 46 l 2
 255 46 246 55 246 66 c 2
 246 200 l 2
 246 225 225 246 200 246 c 2
EndSplineSet
Validated: 1
EndChar

StartChar: p
Encoding: 81 112 81
Width: 1000
VWidth: 800
Flags: W
HStem: -86 40<162.766 237.234> 246 40<162.766 237.234> 314 40<162.938 836.342> 446 40<286 714> 514 40<286 714> 646 40<162.932 837.062>
VStem: 114 40<-37.0681 237.068 363.658 637.068> 246 40<-37.0681 237.068 486 514> 714 40<486 514> 846 40<362.938 636.342>
LayerCount: 2
Fore
SplineSet
200 686 m 2
 800 686 l 2
 856 686 886 637 886 600 c 2
 886 400 l 2
 886 344 837 314 800 314 c 2
 200 314 l 2
 144 314 114 363 114 400 c 2
 114 600 l 2
 114 647 153 686 200 686 c 2
200 646 m 2
 176 646 154 626 154 600 c 2
 154 400 l 2
 154 369 180 354 200 354 c 2
 800 354 l 2
 825 354 846 375 846 400 c 2
 846 600 l 2
 846 625 825 646 800 646 c 2
 200 646 l 2
266 554 m 2
 734 554 l 2
 745 554 754 545 754 534 c 2
 754 466 l 2
 754 455 745 446 734 446 c 2
 266 446 l 2
 255 446 246 455 246 466 c 2
 246 534 l 2
 246 545 255 554 266 554 c 2
286 514 m 1
 286 486 l 1
 714 486 l 1
 714 514 l 1
 286 514 l 1
200 286 m 0
 247 286 286 247 286 200 c 2
 286 0 l 2
 286 -47 247 -86 200 -86 c 0
 153 -86 114 -47 114 0 c 2
 114 200 l 2
 114 247 153 286 200 286 c 0
200 246 m 0
 175 246 154 225 154 200 c 2
 154 0 l 2
 154 -25 175 -46 200 -46 c 0
 225 -46 246 -25 246 0 c 2
 246 200 l 2
 246 225 225 246 200 246 c 0
EndSplineSet
Validated: 1
EndChar

StartChar: q
Encoding: 82 113 82
Width: 1000
VWidth: 800
Flags: W
HStem: -86 40<162.938 537.068 763.842 836.608> 46 40<286 537.068> 214 40<762.766 837.234> 246 40<563.392 636.158> 496 40<162.766 237.234> 514 40<312.932 714> 646 40<312.932 837.062>
VStem: 114 40<-36.3416 487.068> 246 40<86 487.068> 264 40<562.766 637.234> 514 40<163.842 237.256> 546 40<-37.2342 37.2342> 714 40<262.932 514> 846 40<-36.608 36.1576 262.932 636.342>
LayerCount: 2
Fore
SplineSet
350 686 m 2xe74c
 800 686 l 2
 856 686 886 637 886 600 c 2
 886 300 l 2
 886 253 847 214 800 214 c 0
 753 214 714 253 714 300 c 2
 714 514 l 1
 350 514 l 2
 303 514 264 553 264 600 c 0
 264 647 303 686 350 686 c 2xe74c
350 646 m 2
 325 646 304 625 304 600 c 0
 304 575 325 554 350 554 c 2
 734 554 l 2
 745 554 754 545 754 534 c 2
 754 300 l 2
 754 275 775 254 800 254 c 0
 825 254 846 275 846 300 c 2
 846 600 l 2
 846 625 825 646 800 646 c 2
 350 646 l 2
200 536 m 0xcb9c
 247 536 286 497 286 450 c 2
 286 86 l 1
 500 86 l 2
 547 86 586 47 586 0 c 0
 586 -47 547 -86 500 -86 c 2
 200 -86 l 2
 144 -86 114 -37 114 0 c 2
 114 450 l 2
 114 497 153 536 200 536 c 0xcb9c
200 496 m 0
 175 496 154 475 154 450 c 2
 154 0 l 2
 154 -31 180 -46 200 -46 c 2
 500 -46 l 2
 525 -46 546 -25 546 0 c 0
 546 25 525 46 500 46 c 2
 266 46 l 2
 255 46 246 55 246 66 c 2
 246 450 l 2
 246 475 225 496 200 496 c 0
539 261 m 0
 556 278 578 286 600 286 c 0
 622 286 644 278 661 261 c 2
 861 61 l 2
 878 44 886 22 886 0 c 0
 886 -22 878 -44 861 -61 c 0
 844 -78 822 -86 800 -86 c 0
 778 -86 756 -78 739 -61 c 2
 539 139 l 2
 522 156 514 178 514 200 c 0xd32c
 514 222 522 244 539 261 c 0
632 232 m 2
 623 241 611 246 600 246 c 0
 588 246 576 241 568 232 c 0
 559 223 554 212 554 200 c 0
 554 188 559 177 568 168 c 2
 768 -32 l 2
 777 -41 788 -46 800 -46 c 0
 812 -46 823 -41 832 -32 c 0
 841 -23 846 -12 846 0 c 0
 846 12 841 23 832 32 c 2
 632 232 l 2
EndSplineSet
Validated: 1
EndChar

StartChar: r
Encoding: 83 114 83
Width: 1000
VWidth: 800
Flags: W
HStem: -86 40<162.766 237.234 763.842 836.608> 246 40<162.766 237.234 563.392 636.158> 314 40<162.938 836.342> 446 40<286 714> 514 40<286 714> 646 40<162.932 837.062>
VStem: 114 40<-37.0681 237.068 363.658 637.068> 246 40<-37.0681 237.068 486 514> 514 40<163.842 236.608> 714 40<486 514> 846 40<-36.608 36.1576 362.938 636.342>
LayerCount: 2
Fore
SplineSet
200 686 m 2
 800 686 l 2
 856 686 886 637 886 600 c 2
 886 400 l 2
 886 344 837 314 800 314 c 2
 200 314 l 2
 144 314 114 363 114 400 c 2
 114 600 l 2
 114 647 153 686 200 686 c 2
200 646 m 2
 174 646 154 624 154 600 c 2
 154 400 l 2
 154 369 180 354 200 354 c 2
 800 354 l 2
 825 354 846 375 846 400 c 2
 846 600 l 2
 846 625 825 646 800 646 c 2
 200 646 l 2
266 554 m 2
 734 554 l 2
 745 554 754 545 754 534 c 2
 754 466 l 2
 754 455 745 446 734 446 c 2
 266 446 l 2
 255 446 246 455 246 466 c 2
 246 534 l 2
 246 545 255 554 266 554 c 2
286 514 m 1
 286 486 l 1
 714 486 l 1
 714 514 l 1
 286 514 l 1
200 286 m 0
 247 286 286 247 286 200 c 2
 286 0 l 2
 286 -47 247 -86 200 -86 c 0
 153 -86 114 -47 114 0 c 2
 114 200 l 2
 114 247 153 286 200 286 c 0
539 261 m 0
 556 278 578 286 600 286 c 0
 622 286 644 278 661 261 c 2
 861 61 l 2
 878 44 886 22 886 0 c 0
 886 -22 878 -44 861 -61 c 0
 844 -78 822 -86 800 -86 c 0
 778 -86 756 -78 739 -61 c 2
 539 139 l 2
 522 156 514 178 514 200 c 0
 514 222 522 244 539 261 c 0
200 246 m 0
 175 246 154 225 154 200 c 2
 154 0 l 2
 154 -25 175 -46 200 -46 c 0
 225 -46 246 -25 246 0 c 2
 246 200 l 2
 246 225 225 246 200 246 c 0
632 232 m 2
 623 241 612 246 600 246 c 0
 588 246 577 241 568 232 c 0
 559 223 554 212 554 200 c 0
 554 188 559 177 568 168 c 2
 768 -32 l 2
 777 -41 788 -46 800 -46 c 0
 812 -46 823 -41 832 -32 c 0
 841 -23 846 -12 846 0 c 0
 846 12 841 23 832 32 c 2
 632 232 l 2
EndSplineSet
Validated: 1
EndChar

StartChar: s
Encoding: 84 115 84
Width: 1000
VWidth: 800
Flags: W
HStem: -86 40<162.932 836.342> 46 40<162.932 714> 246 40<391 442.063> 314 40<557.838 622> 514 40<286 837.068> 646 40<162.932 837.068>
VStem: 114 40<-37.2342 37.2342 363.854 637.068> 246 40<462 514> 451 39<295.226 368.372> 510 39<231.628 305.236> 714 40<86 138> 846 40<-37.0625 236.146 562.766 637.234>
LayerCount: 2
Fore
SplineSet
200 686 m 2
 800 686 l 2
 847 686 886 647 886 600 c 0
 886 553 847 514 800 514 c 2
 286 514 l 1
 286 462 l 1
 432 413 l 2
 468 401 490 367 490 332 c 0
 490 323 489 314 486 305 c 0
 475 269 441 246 405 246 c 0
 396 246 387 247 378 250 c 0
 310 273 241 296 173 319 c 0
 115 338 114 397 114 400 c 2
 114 600 l 2
 114 647 153 686 200 686 c 2
200 646 m 2
 176 646 154 626 154 600 c 2
 154 400 l 2
 156 380 166 363 186 357 c 2
 391 288 l 2
 396 286 401 286 405 286 c 0
 424 286 442 298 448 317 c 0
 450 322 451 327 451 333 c 0
 451 351 439 369 420 375 c 2
 259 428 l 2
 251 431 246 439 246 447 c 2
 246 534 l 2
 246 545 255 554 266 554 c 2
 800 554 l 2
 825 554 846 575 846 600 c 0
 846 625 825 646 800 646 c 2
 200 646 l 2
598 354 m 1
 622 350 l 1
 690 327 759 304 827 281 c 0
 885 262 886 203 886 200 c 2
 886 -0 l 2
 886 -56 837 -86 800 -86 c 2
 200 -86 l 2
 153 -86 114 -47 114 0 c 0
 114 47 153 86 200 86 c 2
 714 86 l 1
 714 138 l 1
 568 187 l 2
 532 199 510 233 510 268 c 0
 510 277 511 286 514 295 c 0
 526 333 561 354 596 354 c 0
 596 354 597 354 598 354 c 1
597 314 m 0
 587 314 561 311 552 283 c 0
 550 278 549 273 549 267 c 0
 549 249 561 231 580 225 c 2
 741 172 l 2
 749 169 754 161 754 153 c 2
 754 66 l 2
 754 55 745 46 734 46 c 2
 200 46 l 2
 175 46 154 25 154 0 c 0
 154 -25 175 -46 200 -46 c 2
 800 -46 l 2
 825 -46 846 -25 846 0 c 2
 846 200 l 2
 846 220 833 237 814 243 c 2
 609 312 l 2
 605 313 601 314 597 314 c 0
EndSplineSet
Validated: 1
EndChar

StartChar: t
Encoding: 85 116 85
Width: 1000
VWidth: 800
Flags: W
HStem: -86 40<362.766 437.234 562.766 637.234> 514 40<162.932 314 686 837.068> 646 40<162.932 437.062 562.932 837.068>
VStem: 114 40<562.766 637.234> 314 40<-37.0681 514> 446 40<-37.0681 636.342> 514 40<-37.0681 637.068> 646 40<-37.0681 514> 846 40<562.766 637.234>
LayerCount: 2
Fore
SplineSet
200 686 m 2
 400 686 l 2
 456 686 486 637 486 600 c 2
 486 0 l 2
 486 -47 447 -86 400 -86 c 0
 353 -86 314 -47 314 0 c 2
 314 514 l 1
 200 514 l 2
 153 514 114 553 114 600 c 0
 114 647 153 686 200 686 c 2
600 686 m 2
 800 686 l 2
 847 686 886 647 886 600 c 0
 886 553 847 514 800 514 c 2
 686 514 l 1
 686 0 l 2
 686 -47 647 -86 600 -86 c 0
 553 -86 514 -47 514 0 c 2
 514 600 l 2
 514 647 553 686 600 686 c 2
200 646 m 2
 175 646 154 625 154 600 c 0
 154 575 175 554 200 554 c 2
 334 554 l 2
 345 554 354 545 354 534 c 2
 354 0 l 2
 354 -25 375 -46 400 -46 c 0
 425 -46 446 -25 446 0 c 2
 446 600 l 2
 446 625 425 646 400 646 c 2
 200 646 l 2
600 646 m 2
 569 646 554 620 554 600 c 2
 554 0 l 2
 554 -25 575 -46 600 -46 c 0
 625 -46 646 -25 646 0 c 2
 646 534 l 2
 646 545 655 554 666 554 c 2
 800 554 l 2
 825 554 846 575 846 600 c 0
 846 625 825 646 800 646 c 2
 600 646 l 2
EndSplineSet
Validated: 1
EndChar

StartChar: u
Encoding: 86 117 86
Width: 1000
VWidth: 800
Flags: W
HStem: -86 40<162.938 437.068 562.932 836.342> 46 40<286 437.068 562.932 714> 646 40<162.766 237.234 762.766 837.234>
VStem: 114 40<-36.3416 637.068> 246 40<86 637.068> 446 40<-37.2342 37.2342> 514 40<-37.2342 37.2342> 714 40<86 637.068> 846 40<-37.0625 637.068>
LayerCount: 2
Fore
SplineSet
200 686 m 0
 247 686 286 647 286 600 c 2
 286 86 l 1
 400 86 l 2
 447 86 486 47 486 0 c 0
 486 -47 447 -86 400 -86 c 2
 200 -86 l 2
 144 -86 114 -37 114 0 c 2
 114 600 l 2
 114 647 153 686 200 686 c 0
800 686 m 0
 847 686 886 647 886 600 c 2
 886 -0 l 2
 886 -56 837 -86 800 -86 c 2
 600 -86 l 2
 553 -86 514 -47 514 0 c 0
 514 47 553 86 600 86 c 2
 714 86 l 1
 714 600 l 2
 714 647 753 686 800 686 c 0
200 646 m 0
 175 646 154 625 154 600 c 2
 154 0 l 2
 154 -31 180 -46 200 -46 c 2
 400 -46 l 2
 425 -46 446 -25 446 0 c 0
 446 25 425 46 400 46 c 2
 266 46 l 2
 255 46 246 55 246 66 c 2
 246 600 l 2
 246 625 225 646 200 646 c 0
800 646 m 0
 775 646 754 625 754 600 c 2
 754 66 l 2
 754 55 745 46 734 46 c 2
 600 46 l 2
 575 46 554 25 554 0 c 0
 554 -25 575 -46 600 -46 c 2
 800 -46 l 2
 825 -46 846 -25 846 0 c 2
 846 600 l 2
 846 625 825 646 800 646 c 0
EndSplineSet
Validated: 1
EndChar

StartChar: v
Encoding: 87 118 87
Width: 1000
VWidth: 800
Flags: W
HStem: -86 40<363.842 436.608 563.392 636.158> 646 40<162.766 237.234 762.766 837.234>
VStem: 114 40<168.008 637.068> 246 40<236 637.068> 446 40<-36.608 37.4232> 514 40<-36.608 37.4232> 714 40<236 637.068> 846 40<164.875 637.068>
LayerCount: 2
Fore
SplineSet
200 686 m 0
 247 686 286 647 286 600 c 2
 286 236 l 1
 461 61 l 2
 478 44 486 22 486 0 c 0
 486 -22 478 -44 461 -61 c 0
 444 -78 422 -86 400 -86 c 0
 378 -86 356 -78 339 -61 c 2
 139 139 l 2
 123 155 114 177 114 200 c 2
 114 600 l 2
 114 647 153 686 200 686 c 0
800 686 m 0
 847 686 886 647 886 600 c 2
 886 200 l 2
 886 161 861 140 861 139 c 2
 661 -61 l 2
 644 -78 622 -86 600 -86 c 0
 578 -86 556 -78 539 -61 c 0
 522 -44 514 -22 514 0 c 0
 514 22 522 44 539 61 c 2
 714 236 l 1
 714 600 l 2
 714 647 753 686 800 686 c 0
200 646 m 0
 175 646 154 625 154 600 c 2
 154 200 l 2
 154 179 168 168 168 168 c 2
 368 -32 l 2
 377 -41 388 -46 400 -46 c 0
 412 -46 423 -41 432 -32 c 0
 441 -23 446 -12 446 0 c 0
 446 12 441 23 432 32 c 2
 252 213 l 2
 248 217 246 222 246 227 c 2
 246 600 l 2
 246 625 225 646 200 646 c 0
800 646 m 0
 775 646 754 625 754 600 c 2
 754 227 l 2
 754 222 752 217 748 213 c 2
 568 32 l 2
 559 23 554 12 554 0 c 0
 554 -12 559 -23 568 -32 c 0
 577 -41 588 -46 600 -46 c 0
 612 -46 623 -41 632 -32 c 2
 832 168 l 2
 841 176 846 188 846 200 c 2
 846 600 l 2
 846 625 825 646 800 646 c 0
EndSplineSet
Validated: 1
EndChar

StartChar: w
Encoding: 88 119 88
Width: 1000
VWidth: 800
Flags: W
HStem: -86 40<162.938 436.342 562.938 836.342> 46 40<286 314 686 714> 646 40<162.766 237.234 362.766 437.234 562.766 637.234 762.766 837.234>
VStem: 114 40<-36.3416 637.068> 246 40<86 637.068> 314 40<86 637.068> 446 40<-37.0625 637.068> 514 40<-36.3416 637.068> 646 40<86 637.068> 714 40<86 637.068> 846 40<-37.0625 637.068>
LayerCount: 2
Fore
SplineSet
200 686 m 0
 247 686 286 647 286 600 c 2
 286 86 l 1
 314 86 l 1
 314 600 l 2
 314 647 353 686 400 686 c 0
 447 686 486 647 486 600 c 2
 486 -0 l 2
 486 -56 437 -86 400 -86 c 2
 200 -86 l 2
 144 -86 114 -37 114 0 c 2
 114 600 l 2
 114 647 153 686 200 686 c 0
600 686 m 0
 647 686 686 647 686 600 c 2
 686 86 l 1
 714 86 l 1
 714 600 l 2
 714 647 753 686 800 686 c 0
 847 686 886 647 886 600 c 2
 886 -0 l 2
 886 -56 837 -86 800 -86 c 2
 600 -86 l 2
 544 -86 514 -37 514 0 c 2
 514 600 l 2
 514 647 553 686 600 686 c 0
200 646 m 0
 175 646 154 625 154 600 c 2
 154 0 l 2
 154 -31 180 -46 200 -46 c 2
 400 -46 l 2
 425 -46 446 -25 446 0 c 2
 446 600 l 2
 446 625 425 646 400 646 c 0
 375 646 354 625 354 600 c 2
 354 66 l 2
 354 55 345 46 334 46 c 2
 266 46 l 2
 255 46 246 55 246 66 c 2
 246 600 l 2
 246 625 225 646 200 646 c 0
600 646 m 0
 575 646 554 625 554 600 c 2
 554 0 l 2
 554 -31 580 -46 600 -46 c 2
 800 -46 l 2
 825 -46 846 -25 846 0 c 2
 846 600 l 2
 846 625 825 646 800 646 c 0
 775 646 754 625 754 600 c 2
 754 66 l 2
 754 55 745 46 734 46 c 2
 666 46 l 2
 655 46 646 55 646 66 c 2
 646 600 l 2
 646 625 625 646 600 646 c 0
EndSplineSet
Validated: 1
EndChar

StartChar: x
Encoding: 89 120 89
Width: 1000
VWidth: 800
Flags: W
HStem: -86 40<163.392 236.158 763.842 836.608> 646 40<163.392 236.158 763.842 836.608>
VStem: 114 40<-36.608 37.4232 562.577 637.256> 314 40<236 364> 446 40<164.875 435.125> 514 40<168.008 435.125> 646 40<236 364> 846 40<-36.608 37.4232 562.577 636.608>
LayerCount: 2
Fore
SplineSet
139 661 m 0
 156 678 178 686 200 686 c 0
 222 686 244 678 261 661 c 2
 461 461 l 2
 477 445 486 423 486 400 c 2
 486 200 l 2
 486 161 461 140 461 139 c 2
 261 -61 l 2
 244 -78 222 -86 200 -86 c 0
 178 -86 156 -78 139 -61 c 0
 122 -44 114 -22 114 0 c 0
 114 22 122 44 139 61 c 2
 314 236 l 1
 314 364 l 1
 139 539 l 2
 122 556 114 578 114 600 c 0
 114 622 122 644 139 661 c 0
739 661 m 2
 756 678 778 686 800 686 c 0
 822 686 844 678 861 661 c 0
 878 644 886 622 886 600 c 0
 886 578 878 556 861 539 c 2
 686 364 l 1
 686 236 l 1
 861 61 l 2
 878 44 886 22 886 0 c 0
 886 -22 878 -44 861 -61 c 0
 844 -78 822 -86 800 -86 c 0
 778 -86 756 -78 739 -61 c 2
 539 139 l 2
 523 155 514 177 514 200 c 2
 514 400 l 2
 514 439 539 460 539 461 c 2
 739 661 l 2
232 632 m 2
 223 641 211 646 200 646 c 0
 188 646 176 641 168 632 c 0
 159 623 154 612 154 600 c 0
 154 588 159 577 168 568 c 2
 348 387 l 2
 352 383 354 378 354 373 c 2
 354 227 l 2
 354 222 352 217 348 213 c 2
 168 32 l 2
 159 23 154 12 154 0 c 0
 154 -12 159 -23 168 -32 c 0
 177 -41 188 -46 200 -46 c 0
 212 -46 223 -41 232 -32 c 2
 432 168 l 2
 441 176 446 188 446 200 c 2
 446 400 l 2
 446 412 441 424 432 432 c 2
 232 632 l 2
832 632 m 0
 823 641 811 646 800 646 c 0
 788 646 776 641 768 632 c 2
 568 432 l 2
 559 424 554 412 554 400 c 2
 554 200 l 2
 554 179 568 168 568 168 c 2
 768 -32 l 2
 777 -41 788 -46 800 -46 c 0
 812 -46 823 -41 832 -32 c 0
 841 -23 846 -12 846 0 c 0
 846 12 841 23 832 32 c 2
 652 213 l 2
 648 217 646 222 646 227 c 2
 646 373 l 2
 646 378 648 383 652 387 c 2
 832 568 l 2
 841 577 846 588 846 600 c 0
 846 612 841 623 832 632 c 0
EndSplineSet
Validated: 1
EndChar

StartChar: y
Encoding: 90 121 90
Width: 1000
VWidth: 800
Flags: W
HStem: -86 40<362.766 437.234 562.766 637.234> 646 40<163.392 236.158 763.842 836.608>
VStem: 114 40<562.577 637.256> 314 40<-37.0681 364> 446 40<-37.0681 435.125> 514 40<-37.0681 435.125> 646 40<-37.0681 364> 846 40<562.577 636.608>
LayerCount: 2
Fore
SplineSet
139 661 m 0
 156 678 178 686 200 686 c 0
 222 686 244 678 261 661 c 2
 461 461 l 2
 477 445 486 423 486 400 c 2
 486 0 l 2
 486 -47 447 -86 400 -86 c 0
 353 -86 314 -47 314 0 c 2
 314 364 l 1
 139 539 l 2
 122 556 114 578 114 600 c 0
 114 622 122 644 139 661 c 0
739 661 m 2
 756 678 778 686 800 686 c 0
 822 686 844 678 861 661 c 0
 878 644 886 622 886 600 c 0
 886 578 878 556 861 539 c 2
 686 364 l 1
 686 0 l 2
 686 -47 647 -86 600 -86 c 0
 553 -86 514 -47 514 0 c 2
 514 400 l 2
 514 439 539 460 539 461 c 2
 739 661 l 2
232 632 m 2
 223 641 211 646 200 646 c 0
 188 646 176 641 168 632 c 0
 159 623 154 612 154 600 c 0
 154 588 159 577 168 568 c 2
 348 387 l 2
 352 383 354 378 354 373 c 2
 354 0 l 2
 354 -25 375 -46 400 -46 c 0
 425 -46 446 -25 446 0 c 2
 446 400 l 2
 446 412 441 424 432 432 c 2
 232 632 l 2
832 632 m 0
 823 641 811 646 800 646 c 0
 788 646 776 641 768 632 c 2
 568 432 l 2
 559 424 554 412 554 400 c 2
 554 0 l 2
 554 -25 575 -46 600 -46 c 0
 625 -46 646 -25 646 0 c 2
 646 373 l 2
 646 378 648 383 652 387 c 2
 832 568 l 2
 841 577 846 588 846 600 c 0
 846 612 841 623 832 632 c 0
EndSplineSet
Validated: 1
EndChar

StartChar: z
Encoding: 91 122 91
Width: 1000
VWidth: 800
Flags: W
HStem: -86 40<162.938 837.068> 46 40<286 837.068> 246 40<557.937 609> 314 40<391 442.162> 514 40<162.932 714> 646 40<162.932 837.062>
VStem: 114 40<-36.3416 236.43 562.766 637.234> 246 40<86 138> 451 39<231.335 305.368> 510 39<295.056 368.665> 714 40<462 514> 846 40<-37.2342 37.2342 363.993 636.342>
LayerCount: 2
Fore
SplineSet
200 686 m 2
 800 686 l 2
 856 686 886 637 886 600 c 2
 886 400 l 2
 886 363 862 330 827 319 c 1
 622 250 l 2
 613 247 604 246 595 246 c 0
 559 246 525 269 514 305 c 0
 511 314 510 323 510 332 c 0
 510 367 532 401 568 413 c 2
 714 462 l 1
 714 514 l 1
 200 514 l 2
 153 514 114 553 114 600 c 0
 114 647 153 686 200 686 c 2
200 646 m 2
 175 646 154 625 154 600 c 0
 154 575 175 554 200 554 c 2
 734 554 l 2
 745 554 754 545 754 534 c 2
 754 447 l 2
 754 439 749 431 741 428 c 2
 580 375 l 2
 561 369 549 351 549 333 c 0
 549 327 550 322 552 317 c 0
 558 298 576 286 595 286 c 0
 599 286 604 286 609 288 c 2
 814 357 l 2
 833 363 846 380 846 400 c 2
 846 600 l 2
 846 625 825 646 800 646 c 2
 200 646 l 2
402 354 m 0
 403 354 404 354 404 354 c 0
 439 354 474 333 486 295 c 0
 489 286 490 277 490 268 c 0
 490 233 468 199 432 187 c 2
 286 138 l 1
 286 86 l 1
 800 86 l 2
 847 86 886 47 886 0 c 0
 886 -47 847 -86 800 -86 c 2
 200 -86 l 2
 144 -86 114 -37 114 -0 c 2
 114 200 l 2
 117 239 136 268 173 281 c 2
 378 350 l 2
 386 352 394 354 402 354 c 0
403 314 m 2
 391 312 l 1
 322 289 254 266 186 243 c 0
 155 233 154 202 154 200 c 2
 154 0 l 2
 154 -31 180 -46 200 -46 c 2
 800 -46 l 2
 825 -46 846 -25 846 0 c 0
 846 25 825 46 800 46 c 2
 266 46 l 2
 255 46 246 55 246 66 c 2
 246 153 l 2
 246 161 251 169 259 172 c 2
 420 225 l 2
 439 231 451 249 451 267 c 0
 451 273 450 278 448 283 c 0
 441 303 424 314 405 314 c 0
 405 314 404 314 403 314 c 2
EndSplineSet
Validated: 1
EndChar
